<svg version="1.1" id="Layer_1" xmlns="http://www.w3.org/2000/svg" xmlns:xlink="http://www.w3.org/1999/xlink" x="0px" y="0px"
	 width="100%" viewBox="0 0 1080 363" enable-background="new 0 0 1080 363" xml:space="preserve">
<path fill="#000000" opacity="1.000000" stroke="none" 
	d="
M762.000000,364.000000 
	C508.000000,364.000000 254.500000,364.000000 1.000000,364.000000 
	C1.000000,243.000000 1.000000,122.000000 1.000000,1.000000 
	C361.000000,1.000000 721.000000,1.000000 1081.000000,1.000000 
	C1081.000000,122.000000 1081.000000,243.000000 1081.000000,364.000000 
	C974.833313,364.000000 868.666687,364.000000 762.000000,364.000000 
M285.803131,277.216736 
	C285.803131,277.216736 285.676544,277.239685 285.833221,277.757233 
	C286.119751,277.960815 286.406311,278.164429 286.739990,278.239777 
	C286.739990,278.239777 286.604919,278.260406 286.853058,278.875061 
	C287.183746,279.158173 287.514465,279.441254 287.802063,279.887695 
	C287.802063,279.887695 287.939362,279.986176 287.952576,280.567444 
	C288.397247,281.186127 288.841949,281.804779 289.367615,282.619110 
	C289.367615,282.619110 289.559479,282.708771 289.919708,283.147217 
	C290.611969,283.755920 291.304230,284.364624 291.996094,285.010254 
	C291.996094,285.010254 292.031738,285.000610 292.262238,285.533997 
	C292.833252,286.045319 293.404266,286.556641 294.015625,287.579987 
	C294.116699,287.718140 294.217773,287.856323 294.395264,288.548065 
	C294.917389,289.044586 295.439545,289.541138 296.000000,290.001068 
	C296.000000,290.001068 295.958130,290.032623 296.093872,290.547455 
	C296.361206,290.762329 296.628510,290.977173 296.920013,291.106750 
	C296.920013,291.106750 296.833069,291.123932 297.016113,291.716125 
	C297.646393,292.229065 298.276642,292.742035 298.918610,293.828674 
	C299.247223,294.232605 299.575836,294.636566 300.080963,295.551605 
	C300.359375,295.761292 300.637756,295.970978 300.929565,296.095978 
	C300.929565,296.095978 300.844299,296.105133 301.053345,296.718567 
	C302.281555,297.911133 303.509735,299.103699 304.772308,300.185028 
	C304.772308,300.185028 304.658020,300.207184 304.781372,300.823151 
	C305.170410,301.261658 305.559448,301.700195 306.067169,302.680969 
	C306.398682,303.118591 306.730194,303.556213 307.149139,304.642639 
	C307.726746,304.945007 308.304382,305.247375 308.906677,306.167999 
	C309.255524,306.791138 309.604370,307.414307 310.387390,308.583191 
	C314.478821,313.018280 315.448792,313.094452 320.199127,309.438538 
	C321.372955,308.535156 322.600128,307.700653 323.808777,306.843018 
	C335.924561,298.245758 348.041534,289.650238 360.824982,280.908051 
	C361.970856,280.044830 363.101135,279.159912 364.265228,278.321960 
	C371.296387,273.260864 378.335327,268.210510 385.907379,262.731262 
	C397.595642,254.720886 409.283936,246.710510 421.540466,238.428726 
	C430.960571,231.596619 440.380676,224.764511 450.763245,217.924561 
	C466.996368,217.924561 483.229523,217.924561 499.495972,217.924561 
	C499.970673,213.188126 500.376984,209.134048 501.702240,205.070496 
	C502.312317,205.031128 502.922363,204.991760 504.030518,205.354141 
	C504.901733,206.605408 506.004822,207.755478 506.602936,209.125931 
	C508.872253,214.325546 512.787537,217.513672 518.371094,217.701126 
	C535.913757,218.290085 553.466980,218.564117 571.663879,219.131454 
	C575.059875,220.088348 578.470825,220.995850 581.848816,222.012482 
	C588.779846,224.098434 595.079773,224.721298 601.842834,220.082870 
	C613.145447,212.331055 625.209106,205.688965 636.901672,199.283127 
	C636.971252,199.507690 637.040833,199.732239 636.986633,200.891342 
	C636.986633,206.476547 636.986633,212.061752 636.986633,217.953979 
	C640.051697,217.953979 642.200806,217.971542 644.349609,217.950821 
	C652.236633,217.874817 652.153198,217.871246 652.042297,210.182800 
	C651.939026,203.020981 652.039124,195.856201 652.605164,188.361160 
	C654.786621,186.981537 656.968018,185.601913 659.116272,184.243271 
	C660.546387,185.519806 661.766785,186.609131 663.315002,188.334702 
	C664.636902,188.867630 665.958862,189.400558 667.974121,190.267029 
	C682.205750,190.285049 696.437317,190.303070 711.416626,190.642029 
	C711.944458,190.760529 712.472351,190.879013 713.028076,191.818893 
	C712.849182,195.406189 712.670349,198.993484 712.461548,203.182739 
	C693.949707,203.182739 675.750549,203.182739 657.645996,203.182739 
	C657.645996,208.360092 657.645996,212.899536 657.645996,217.686646 
	C677.486145,217.686646 697.245972,217.880432 716.997253,217.556732 
	C722.238525,217.470825 727.129944,211.681778 727.488770,206.405823 
	C727.849365,201.104599 727.991821,195.776093 727.939697,190.462387 
	C727.872803,183.633179 723.746338,178.459488 716.480530,175.954971 
	C716.308167,175.960709 716.135803,175.966446 715.270874,175.548065 
	C704.560120,175.491531 693.849426,175.434998 682.224060,175.205887 
	C680.068787,175.324295 677.913574,175.442688 675.091553,175.160706 
	C674.834839,175.118118 674.578125,175.075516 674.808655,174.441879 
	C680.921875,170.644333 687.035095,166.846786 694.067200,163.016129 
	C701.210022,162.958466 708.352783,162.888382 715.495667,162.845810 
	C728.918640,162.765778 728.976379,162.705978 726.907654,149.140930 
	C726.864990,148.861237 726.557434,148.621933 726.386719,148.382355 
	C724.127258,147.961014 721.895569,147.544846 720.340027,146.919312 
	C720.852600,146.468369 721.365173,146.017441 722.415588,145.257767 
	C730.414612,140.230682 738.413635,135.203598 747.092163,130.101303 
	C761.075195,121.397675 775.058289,112.694054 789.733582,103.882011 
	C794.967651,100.650520 800.265320,97.516830 805.420166,94.163498 
	C812.322876,89.673096 812.302979,89.581993 816.689636,96.278152 
	C819.062744,99.900513 821.322876,103.596855 823.633972,107.259827 
	C824.054504,107.101624 824.475098,106.943420 824.895630,106.785210 
	C827.927979,93.085510 830.960388,79.385811 833.993958,65.680489 
	C831.127991,65.078117 828.913330,64.620865 826.702454,64.146523 
	C817.323181,62.134205 807.958252,60.049786 798.549011,58.189430 
	C797.422668,57.966721 795.517273,58.603775 794.955261,59.475548 
	C794.396545,60.342148 794.689209,62.226009 795.284729,63.282738 
	C797.271606,66.808571 799.561768,70.163536 801.898621,73.840378 
	C791.364563,80.652100 781.157349,87.252434 770.217896,93.817947 
	C767.476257,95.593544 764.734558,97.369141 761.299561,99.215424 
	C757.258423,101.797134 753.217224,104.378838 749.029846,106.950150 
	C749.029846,106.950150 748.989990,107.091171 748.313171,107.237541 
	C736.599976,114.505089 724.886841,121.772629 712.465576,129.157684 
	C702.564880,135.431656 692.664185,141.705627 681.863525,147.883179 
	C678.566040,147.895935 675.266663,147.840591 671.971497,147.935028 
	C664.015076,148.163055 658.726196,153.237869 657.774780,161.772034 
	C655.830933,163.201889 653.887085,164.631760 651.911194,165.180267 
	C651.793274,154.329651 647.093628,148.091599 638.272339,147.948959 
	C623.829834,147.715408 609.380005,147.781708 594.935181,147.915756 
	C588.354248,147.976837 582.045288,154.064667 581.834778,160.607330 
	C581.627014,167.066437 581.942566,173.542374 581.850098,180.931641 
	C581.868530,187.867569 581.886963,194.803482 581.178833,201.917557 
	C580.684753,201.980957 580.190735,202.044357 579.166077,201.766678 
	C578.342407,201.765350 577.518677,201.764038 576.157471,201.441452 
	C575.533875,201.407913 574.910217,201.374374 573.765137,200.679031 
	C567.971436,199.767273 562.124939,199.105057 556.395142,197.891556 
	C544.634094,195.400711 532.935608,192.614532 520.976318,189.042480 
	C520.976318,180.489212 520.976318,171.935944 520.976318,163.112167 
	C522.031616,163.064545 523.333801,162.957825 524.636230,162.954361 
	C540.117432,162.913147 555.599609,162.957397 571.078247,162.744034 
	C572.551697,162.723709 575.129211,161.263153 575.264282,160.221054 
	C575.767334,156.339630 575.465088,152.353790 575.465088,148.293610 
	C574.227295,148.137268 573.424866,147.949097 572.622009,147.947281 
	C554.810425,147.906769 536.992676,147.644821 519.192993,148.092514 
	C516.093994,148.170456 513.070679,151.258224 509.415558,153.187195 
	C508.607117,154.132858 507.798645,155.078522 506.569580,156.378876 
	C506.492950,156.896759 506.416321,157.414627 506.203735,158.735092 
	C506.297363,159.810242 506.390961,160.885391 506.281494,162.881882 
	C506.360229,169.867584 506.438965,176.853271 506.328644,184.756882 
	C506.257141,185.377579 506.185638,185.998276 505.583374,186.535263 
	C505.107758,186.708130 504.632111,186.880981 503.415222,186.975861 
	C502.368683,186.442261 501.322144,185.908676 500.215393,184.689499 
	C500.090546,183.782944 499.965668,182.876389 500.003235,181.118301 
	C500.003235,179.362640 500.003235,177.606979 500.003235,175.626114 
	C496.052887,175.626114 492.793610,175.626114 488.978912,175.450287 
	C488.599976,175.519684 488.221069,175.589081 486.948303,175.422318 
	C477.716553,175.495560 468.484802,175.568802 458.468994,175.395126 
	C457.660767,175.458633 456.852509,175.522141 455.173828,175.314438 
	C452.182892,175.370361 449.191956,175.426285 445.453217,175.047836 
	C445.170013,173.663040 444.886780,172.278259 444.810760,170.089111 
	C444.729279,168.435455 444.647797,166.781784 444.829071,164.360062 
	C445.909515,163.769516 446.989929,163.178955 448.499756,162.753937 
	C448.499756,162.753937 448.935669,162.606461 449.858978,162.816559 
	C461.591248,162.806274 473.323517,162.795990 485.952271,163.014481 
	C490.541229,162.670792 495.130219,162.327103 499.950256,161.518646 
	C499.922241,161.347931 499.894226,161.177200 500.055298,160.090866 
	C500.055298,156.172852 500.055298,152.254837 500.055298,148.229050 
	C498.591309,148.083252 497.788879,147.934906 496.986206,147.933472 
	C479.072937,147.901245 461.159576,147.869720 443.246368,147.904419 
	C442.167114,147.906509 441.088928,148.460968 439.314819,148.926468 
	C436.469360,151.763657 433.623901,154.600845 430.251556,158.188934 
	C430.185822,174.379547 430.112152,190.570129 430.085815,206.760803 
	C430.084839,207.359985 430.546692,207.959915 430.527985,208.887405 
	C430.453217,209.177612 430.497589,209.448257 429.975067,209.868973 
	C427.353729,211.027069 424.732391,212.185181 421.678680,212.601715 
	C422.372559,209.937256 423.623627,207.281784 423.666809,204.606827 
	C423.889496,190.810623 423.811035,177.009430 423.820709,163.209976 
	C423.827576,153.431992 418.280884,147.906265 408.395203,147.885422 
	C392.102142,147.851044 375.809021,147.844940 359.515930,147.856232 
	C357.921631,147.857346 356.327423,148.062988 354.236786,148.208160 
	C354.544220,151.778946 354.810638,154.873444 354.927673,158.899490 
	C355.058228,176.358063 355.188751,193.816620 354.978241,211.827652 
	C354.823151,213.720795 354.668091,215.613937 354.481140,217.896347 
	C375.444855,217.896347 395.765839,217.896347 416.067810,218.618408 
	C414.728302,219.755280 413.388794,220.892166 411.335236,222.093964 
	C410.312683,222.622055 409.219604,223.047516 408.278442,223.694107 
	C398.573090,230.361816 388.778107,236.907440 379.239929,243.807602 
	C371.295349,249.554916 363.660278,255.730072 355.155426,261.875488 
	C351.942657,264.187775 348.729919,266.500092 345.852600,268.585999 
	C345.522919,268.688477 345.193207,268.790955 344.921997,268.946991 
	C344.921997,268.946991 344.951324,268.873291 344.317352,268.748169 
	C343.851196,269.144928 343.385040,269.541718 342.991760,269.994354 
	C342.991760,269.994354 342.942993,269.916534 342.320007,270.026337 
	C341.506897,270.645386 340.693787,271.264435 339.874695,271.917175 
	C339.874695,271.917175 339.846863,271.888824 339.139160,271.917633 
	C332.311951,276.693604 325.484772,281.469604 318.791534,286.151855 
	C317.111053,284.632507 315.610596,283.566803 314.481384,282.195404 
	C311.994629,279.175293 309.781433,275.930267 307.299927,272.905548 
	C303.250244,267.969360 299.075470,263.135834 294.794403,257.563263 
	C289.950134,251.626816 285.248260,245.566132 280.213379,239.796005 
	C276.633972,235.693863 273.267883,230.305725 268.629120,228.474915 
	C260.866577,225.411224 252.164001,224.729431 243.138718,222.746933 
	C237.328018,221.528900 231.496979,220.398438 225.715652,219.054062 
	C223.027283,218.428925 220.435471,217.388458 217.856934,215.533981 
	C217.856934,207.149521 217.856934,198.765076 217.856934,190.409424 
	C221.956985,189.138153 224.903091,191.118134 227.757233,194.096054 
	C234.185379,200.802948 240.767441,207.366943 247.434708,213.836746 
	C249.051239,215.405396 251.168594,217.302353 253.180695,217.460815 
	C259.240936,217.938065 265.362732,217.632935 271.518738,217.632935 
	C271.518738,212.586761 271.518738,208.033218 271.518738,202.583130 
	C260.073853,205.723877 253.640900,199.503860 247.428314,190.647095 
	C251.567627,190.647095 254.833908,190.778015 258.086426,190.621979 
	C267.001892,190.194229 271.769348,185.303802 271.893829,176.549728 
	C271.955414,172.219528 271.907379,167.887833 271.918457,163.556839 
	C271.945251,153.104370 266.606476,147.860352 255.931244,147.855881 
	C240.106659,147.849258 224.282043,147.830704 208.457489,147.845093 
	C206.693741,147.846695 204.930161,148.029404 203.078934,148.133011 
	C202.984818,149.646011 202.870041,150.625397 202.870926,151.604691 
	C202.888107,170.594376 202.950989,189.584152 202.903580,208.573654 
	C202.898041,210.797577 202.299866,213.020020 201.416473,214.724030 
	C197.607178,214.209900 193.797867,213.695755 189.393051,213.028931 
	C189.188583,213.042816 188.984131,213.056702 188.230896,212.673233 
	C186.046432,211.811508 183.928818,210.622406 181.662872,210.159637 
	C177.573242,209.324417 173.394882,208.923569 169.135925,207.366470 
	C169.135925,192.620041 169.135925,177.873627 169.135925,162.870422 
	C177.441635,162.870422 185.087601,162.992340 192.722443,162.755554 
	C194.061737,162.714020 196.376923,161.282913 196.488251,160.295807 
	C196.927643,156.400589 196.668518,152.426544 196.668518,148.353333 
	C172.812271,148.353333 149.626846,148.353333 126.415031,148.353333 
	C126.415031,153.244217 126.415031,157.669052 126.415031,162.875671 
	C134.127853,162.875671 141.577194,162.986374 149.020935,162.830185 
	C152.889664,162.748993 154.488602,163.950653 153.852493,168.101181 
	C153.225937,172.189346 153.051270,176.378799 153.047104,180.524185 
	C153.035767,191.801926 153.125870,203.082687 153.465942,214.353500 
	C153.501205,215.522293 155.290100,217.211014 156.600922,217.645111 
	C159.067612,218.462051 161.779251,218.539398 164.301102,219.728561 
	C163.890427,221.448654 163.479752,223.168762 162.962326,225.335922 
	C165.733521,226.157944 168.351868,226.934616 171.760880,227.923935 
	C182.511627,230.283157 193.262360,232.642365 204.484985,235.403610 
	C205.302200,235.439102 206.119431,235.474609 207.601273,235.773407 
	C208.074997,235.761810 208.548706,235.750214 209.487503,235.952271 
	C209.658096,235.950531 209.828690,235.948792 210.016754,236.009109 
	C210.016754,236.009109 210.074646,235.980743 210.611404,236.561447 
	C223.994217,239.408661 237.324432,242.546387 250.781616,244.982849 
	C257.706696,246.236633 263.265656,248.875320 266.996674,254.995605 
	C266.996674,254.995605 267.070557,255.002441 267.224487,255.557449 
	C267.937164,256.195343 268.649872,256.833221 269.457703,257.622986 
	C269.457703,257.622986 269.625397,257.686310 269.823486,258.036407 
	C269.998932,258.254669 270.223358,258.394165 270.788025,258.246185 
	C270.788025,258.246185 270.530548,258.495453 270.760834,259.124329 
	C272.144592,260.791504 273.528381,262.458710 274.936279,264.043793 
	C274.936279,264.043793 274.854431,264.068726 275.041809,264.576843 
	C275.341797,264.760712 275.641785,264.944611 275.953796,265.050934 
	C275.953796,265.050934 275.876221,265.062897 276.031891,265.711365 
	C276.993958,266.841797 277.956055,267.972229 278.987579,269.004822 
	C278.987579,269.004822 278.897552,269.084198 279.135712,269.716400 
	C280.983368,271.927917 282.831024,274.139435 284.796051,276.194489 
	C284.796051,276.194489 284.629883,276.297668 284.848969,276.796173 
	C285.155945,276.977783 285.462921,277.159393 285.803131,277.216736 
M818.291199,216.803009 
	C818.291199,216.803009 818.722961,216.996597 818.598267,217.060333 
	C818.598267,217.060333 818.572388,217.034088 819.464172,217.499573 
	C834.384338,217.652420 849.304199,217.862381 864.224731,217.924149 
	C868.841187,217.943253 873.459351,217.559326 878.320435,217.505554 
	C878.320435,217.505554 878.530457,217.315140 878.530457,217.315140 
	C878.530457,217.315140 878.440796,217.045929 878.805786,216.251266 
	C878.771057,214.509552 878.736267,212.767853 878.909302,210.182083 
	C878.909302,207.962265 878.909302,205.742447 878.909302,203.214066 
	C875.890137,203.214066 873.358643,203.214066 870.255859,203.146545 
	C870.075989,203.213043 869.896179,203.279541 868.847107,203.082382 
	C854.189209,202.899765 839.531250,202.717133 824.726440,202.226929 
	C824.726440,202.226929 824.406372,202.109543 824.416565,201.556824 
	C824.173096,201.075943 823.929688,200.595078 823.803284,199.415207 
	C823.734192,198.951279 823.665161,198.487335 823.826599,197.158310 
	C823.864746,195.062683 823.902893,192.967072 824.877075,190.726700 
	C826.530640,190.702362 828.184082,190.670502 829.837708,190.654892 
	C844.546204,190.516037 859.254761,190.380051 874.466064,190.501297 
	C875.001831,190.400848 875.537659,190.300415 876.726929,190.343430 
	C877.148865,190.228470 877.570740,190.113495 878.684387,189.505188 
	C878.684387,184.932953 878.684387,180.360718 878.684387,175.169907 
	C875.889282,175.169907 873.595886,175.204803 871.303772,175.164215 
	C856.684204,174.905411 842.062256,174.711807 827.450134,174.225800 
	C826.080505,174.180252 824.773499,172.254913 823.665039,170.424057 
	C823.575623,169.627762 823.486267,168.831467 823.643555,167.284500 
	C823.556580,166.511780 823.469543,165.739044 823.748718,164.150742 
	C825.224121,163.739182 826.682617,163.066025 828.178345,162.969589 
	C831.462585,162.757797 834.765625,162.837845 838.478027,163.106644 
	C839.295837,163.002075 840.113708,162.897491 841.749756,162.950409 
	C842.855286,162.898087 843.960754,162.845764 845.783325,163.137314 
	C852.833069,163.027130 859.882874,162.916946 867.706665,162.959518 
	C868.490295,162.908630 869.273987,162.857742 870.690063,163.134338 
	C873.288818,163.134338 875.887573,163.134338 878.597046,163.134338 
	C878.597046,157.668243 878.597046,152.957535 878.597046,148.215622 
	C877.543579,148.037933 876.895081,147.834793 876.245850,147.832718 
	C858.432190,147.775986 840.612488,147.495758 822.810730,147.938538 
	C819.818359,148.012955 816.904053,151.228760 813.830994,153.311432 
	C813.830994,153.311432 813.865784,153.650833 813.177490,153.806137 
	C812.145996,154.878128 811.114441,155.950104 810.008057,157.068985 
	C810.008057,157.068985 810.058472,157.141510 809.684326,157.801880 
	C809.538147,160.178345 809.391968,162.554825 809.095886,165.866608 
	C809.089844,178.258362 808.847229,190.656570 809.185791,203.038895 
	C809.336548,208.551605 810.852417,213.910797 817.357178,216.244415 
	C817.543762,216.413605 817.760498,216.473541 818.291199,216.803009 
M345.999817,154.991745 
	C345.999817,154.991745 346.033173,154.962006 345.951874,154.333588 
	C344.961182,153.323914 343.970490,152.314224 342.583618,151.012436 
	C342.583618,151.012436 342.098969,150.926468 341.748840,150.332367 
	C339.810211,149.604721 337.871613,148.877075 335.020447,147.962067 
	C325.967529,147.990921 316.914612,148.019791 307.734253,147.836746 
	C307.457611,147.726532 307.254242,147.795410 306.190674,147.881180 
	C302.081390,147.933914 297.972076,147.986664 293.736176,147.827988 
	C293.460571,147.720474 293.256775,147.788620 292.301819,147.872345 
	C284.568634,148.397339 278.360931,153.527679 278.255432,160.698212 
	C277.984070,179.149765 278.235657,197.608978 278.202332,216.663040 
	C278.792175,217.043152 279.382019,217.423279 280.733673,217.947006 
	C281.502014,217.878387 282.270355,217.809784 283.926971,217.943649 
	C286.972198,217.943649 290.017426,217.943649 292.824829,217.943649 
	C292.824829,208.710037 292.824829,200.349625 293.125275,191.388550 
	C297.967438,190.963135 302.809601,190.537735 308.463593,190.428894 
	C314.261169,190.454956 320.058777,190.502182 325.856354,190.501770 
	C333.223633,190.501251 333.086090,190.486603 333.194519,197.907791 
	C333.289856,204.433426 333.739349,210.953873 334.762634,217.830978 
	C335.837036,217.801620 336.911438,217.772263 338.884613,217.952759 
	C340.048798,217.970596 341.213104,218.008392 342.377167,218.002975 
	C348.850677,217.972809 348.826660,217.969330 348.799591,211.440308 
	C348.733368,195.466553 348.752747,179.491974 348.567688,163.519714 
	C348.542603,161.352875 347.542236,159.197342 347.012878,157.002014 
	C347.012878,157.002014 346.974274,156.992981 346.977173,156.396774 
	C346.664062,155.922363 346.350952,155.447937 345.999817,154.991745 
M921.354797,204.143204 
	C929.144104,213.835922 938.217224,220.739151 951.646301,217.618286 
	C953.051392,217.291733 955.166687,215.977829 955.293457,214.922714 
	C955.741394,211.194702 955.467834,207.380005 955.467834,202.536224 
	C943.313538,205.818314 936.034851,199.987915 929.630066,190.583908 
	C933.623718,190.583908 936.877197,190.652496 940.127014,190.570877 
	C949.382141,190.338455 955.015991,185.040344 955.593079,175.770813 
	C955.851074,171.625687 955.701172,167.445328 955.558899,163.287048 
	C955.226562,153.570999 949.470093,147.951248 939.740356,147.913879 
	C923.088928,147.849930 906.437073,147.875702 889.785400,147.892410 
	C888.352905,147.893860 886.920593,148.108734 885.315308,148.238434 
	C885.209839,149.588516 885.069519,150.556412 885.068237,151.524521 
	C885.041687,170.839249 885.031860,190.154007 885.017090,209.468750 
	C885.009583,219.265900 884.426331,217.715485 893.193848,217.835403 
	C900.665161,217.937607 900.650208,217.876175 900.623047,210.194443 
	C900.599792,203.610565 900.618286,197.026550 900.618286,188.740997 
	C904.674622,190.648743 908.017700,191.562103 910.507324,193.546371 
	C914.251831,196.530792 917.398987,200.264832 921.354797,204.143204 
M799.295471,147.945526 
	C777.518127,147.945526 755.740784,147.945526 733.202698,147.945526 
	C733.202698,152.021225 733.339111,155.646790 733.159973,159.256683 
	C733.013733,162.203796 734.344482,162.969635 737.035461,162.910461 
	C743.197693,162.774979 749.377930,163.089890 755.524658,162.748917 
	C759.789001,162.512360 761.330017,163.640930 761.247498,168.221878 
	C760.977478,183.212128 761.177673,198.210999 761.221375,213.206497 
	C761.225586,214.640671 761.400330,216.074356 761.496338,217.515167 
	C766.502380,217.515167 771.067444,217.515167 776.138550,217.515167 
	C776.138550,199.170563 776.138550,181.257446 776.138550,163.578125 
	C776.940735,163.214081 777.232788,162.967117 777.526306,162.965332 
	C782.687927,162.933762 787.849854,162.929337 793.011658,162.924576 
	C804.904846,162.913651 804.797180,162.922760 803.935364,151.187790 
	C803.732727,148.428726 802.617004,147.728882 799.295471,147.945526 
z"/>
<path fill="#5C15D8" opacity="1.000000" stroke="none" 
	d="
M921.077454,203.911713 
	C917.398987,200.264832 914.251831,196.530792 910.507324,193.546371 
	C908.017700,191.562103 904.674622,190.648743 900.618286,188.740997 
	C900.618286,197.026550 900.599792,203.610565 900.623047,210.194443 
	C900.650208,217.876175 900.665161,217.937607 893.193848,217.835403 
	C884.426331,217.715485 885.009583,219.265900 885.017090,209.468750 
	C885.031860,190.154007 885.041687,170.839249 885.068237,151.524521 
	C885.069519,150.556412 885.209839,149.588516 885.315308,148.238434 
	C886.920593,148.108734 888.352905,147.893860 889.785400,147.892410 
	C906.437073,147.875702 923.088928,147.849930 939.740356,147.913879 
	C949.470093,147.951248 955.226562,153.570999 955.558899,163.287048 
	C955.701172,167.445328 955.851074,171.625687 955.593079,175.770813 
	C955.015991,185.040344 949.382141,190.338455 940.127014,190.570877 
	C936.877197,190.652496 933.623718,190.583908 929.630066,190.583908 
	C936.034851,199.987915 943.313538,205.818314 955.467834,202.536224 
	C955.467834,207.380005 955.741394,211.194702 955.293457,214.922714 
	C955.166687,215.977829 953.051392,217.291733 951.646301,217.618286 
	C938.217224,220.739151 929.144104,213.835922 921.077454,203.911713 
M939.253845,174.958923 
	C939.696411,171.159988 940.138916,167.361069 940.622742,163.207886 
	C926.616943,163.207886 913.620117,163.207886 900.531860,163.207886 
	C900.531860,167.330353 900.531860,171.054230 900.531860,175.146179 
	C913.399658,175.146179 925.850708,175.146179 939.253845,174.958923 
z"/>
<path fill="#5C16D9" opacity="1.000000" stroke="none" 
	d="
M201.976425,215.243149 
	C202.299866,213.020020 202.898041,210.797577 202.903580,208.573654 
	C202.950989,189.584152 202.888107,170.594376 202.870926,151.604691 
	C202.870041,150.625397 202.984818,149.646011 203.078934,148.133011 
	C204.930161,148.029404 206.693741,147.846695 208.457489,147.845093 
	C224.282043,147.830704 240.106659,147.849258 255.931244,147.855881 
	C266.606476,147.860352 271.945251,153.104370 271.918457,163.556839 
	C271.907379,167.887833 271.955414,172.219528 271.893829,176.549728 
	C271.769348,185.303802 267.001892,190.194229 258.086426,190.621979 
	C254.833908,190.778015 251.567627,190.647095 247.428314,190.647095 
	C253.640900,199.503860 260.073853,205.723877 271.518738,202.583130 
	C271.518738,208.033218 271.518738,212.586761 271.518738,217.632935 
	C265.362732,217.632935 259.240936,217.938065 253.180695,217.460815 
	C251.168594,217.302353 249.051239,215.405396 247.434708,213.836746 
	C240.767441,207.366943 234.185379,200.802948 227.757233,194.096054 
	C224.903091,191.118134 221.956985,189.138153 217.856934,190.409424 
	C217.856934,198.765076 217.856934,207.149521 217.477600,216.238312 
	C211.956360,217.277328 206.664566,218.945755 201.976425,215.243149 
M249.446381,175.193253 
	C252.163834,175.193253 254.881302,175.193253 257.781616,175.193253 
	C257.781616,172.289459 257.549683,170.281876 257.829376,168.348282 
	C258.432159,164.181015 256.849640,162.698608 252.646637,162.852753 
	C245.524033,163.113983 238.385147,162.931656 231.253098,162.934097 
	C226.510483,162.935730 221.767868,162.934418 216.851685,162.934418 
	C216.851685,167.249390 216.851685,170.817062 216.851685,175.200104 
	C227.647934,175.200104 238.053146,175.200104 249.446381,175.193253 
z"/>
<path fill="#5C16D8" opacity="1.000000" stroke="none" 
	d="
M355.077057,157.967957 
	C354.810638,154.873444 354.544220,151.778946 354.236786,148.208160 
	C356.327423,148.062988 357.921631,147.857346 359.515930,147.856232 
	C375.809021,147.844940 392.102142,147.851044 408.395203,147.885422 
	C418.280884,147.906265 423.827576,153.431992 423.820709,163.209976 
	C423.811035,177.009430 423.889496,190.810623 423.666809,204.606827 
	C423.623627,207.281784 422.372559,209.937256 421.861572,212.902832 
	C422.044434,213.203934 422.134979,213.075455 421.828003,212.962875 
	C420.956726,213.496506 420.392487,214.142731 419.586945,214.984253 
	C418.259399,216.085175 417.173126,216.990768 416.086853,217.896347 
	C395.765839,217.896347 375.444855,217.896347 354.481140,217.896347 
	C354.668091,215.613937 354.823151,213.720795 355.546265,211.286240 
	C356.387573,210.157990 356.898132,209.571732 356.899536,208.984253 
	C356.941956,191.377228 356.934052,173.770096 356.934052,155.589966 
	C356.033234,156.743484 355.555145,157.355728 355.077057,157.967957 
M402.425751,203.039139 
	C404.846832,203.039139 407.267883,203.039139 410.051483,203.039139 
	C410.051483,190.314697 410.015015,178.344238 410.076752,166.374283 
	C410.092468,163.323669 408.300323,162.834656 405.867859,162.846939 
	C399.537689,162.878906 393.207306,162.875244 386.877014,162.879822 
	C380.931183,162.884125 374.985352,162.880737 368.803070,162.880737 
	C368.803070,176.496368 368.803070,189.395889 368.803070,203.035416 
	C379.879608,203.035416 390.662842,203.035416 402.425751,203.039139 
z"/>
<path fill="#601BE1" opacity="1.000000" stroke="none" 
	d="
M430.778442,157.438034 
	C433.623901,154.600845 436.469360,151.763657 439.669617,149.229126 
	C442.691986,151.352112 445.211334,154.420013 448.054962,154.757767 
	C456.427551,155.752182 464.939789,155.498306 473.375397,156.061951 
	C478.441864,156.400467 483.500000,157.174423 488.500610,158.087952 
	C492.338776,158.789108 496.081177,160.014297 499.866180,161.006454 
	C499.894226,161.177200 499.922241,161.347931 499.389832,161.747650 
	C494.238190,162.246338 489.647003,162.516006 485.055786,162.785706 
	C473.323517,162.795990 461.591248,162.806274 449.308868,162.610931 
	C448.484924,162.274445 448.255463,162.335480 448.070374,162.588394 
	C446.989929,163.178955 445.909515,163.769516 444.524475,165.028214 
	C444.347778,167.428726 444.475677,169.161102 444.603577,170.893463 
	C444.886780,172.278259 445.170013,173.663040 446.127838,175.435242 
	C448.452698,175.994171 450.102966,176.165726 451.753204,176.337280 
	C451.732330,176.494476 451.711487,176.651672 451.690613,176.808868 
	C449.321716,176.979675 446.952820,177.150482 443.908234,177.370010 
	C447.114899,182.816986 451.522125,180.735214 455.269867,180.696289 
	C464.675537,180.598633 474.083252,180.063568 483.482391,180.208313 
	C488.942932,180.292419 494.388489,181.350189 499.840790,181.969833 
	C499.965668,182.876389 500.090546,183.782944 500.166748,185.480713 
	C500.083954,189.336700 498.286377,190.061035 495.552307,190.031616 
	C487.626953,189.946335 479.697754,189.908554 471.774261,190.064941 
	C466.522888,190.168564 461.278778,190.638046 455.692963,190.720245 
	C451.955688,190.496735 448.556885,190.496735 444.670593,190.496735 
	C444.810181,193.404343 444.935608,196.015976 445.046417,199.051224 
	C444.667542,203.864090 448.030334,203.697144 450.670074,203.668320 
	C458.388519,203.584045 466.103485,203.178101 474.225220,202.932388 
	C479.052063,202.956680 483.473541,202.946793 488.320923,202.955292 
	C492.759003,203.675766 496.771149,204.377869 500.783264,205.079971 
	C500.376984,209.134048 499.970673,213.188126 499.495972,217.924561 
	C483.229523,217.924561 466.996368,217.924561 449.878418,218.015533 
	C441.540924,218.230057 435.585602,215.088669 430.661133,209.699341 
	C430.497589,209.448257 430.453217,209.177612 430.713593,208.211700 
	C430.858948,190.836685 430.818695,174.137360 430.778442,157.438034 
M436.374756,160.682541 
	C437.033234,162.438004 437.691681,164.193481 438.350128,165.948959 
	C439.014374,165.846313 439.678589,165.743683 440.342834,165.641037 
	C440.579468,163.309860 440.816132,160.978668 441.209778,157.100906 
	C438.842560,158.623978 437.756165,159.322952 436.374756,160.682541 
z"/>
<path fill="#5C14DE" opacity="1.000000" stroke="none" 
	d="
M817.153442,215.961273 
	C810.852417,213.910797 809.336548,208.551605 809.185791,203.038895 
	C808.847229,190.656570 809.089844,178.258362 809.389832,165.085480 
	C809.808655,161.916733 809.933533,159.529129 810.058472,157.141510 
	C810.058472,157.141510 810.008057,157.068985 810.378052,156.993347 
	C811.787354,155.828751 812.826599,154.739807 813.865784,153.650848 
	C813.865784,153.650833 813.830994,153.311432 814.253906,153.101913 
	C819.301086,150.320297 823.891968,147.439636 829.070251,151.787827 
	C829.385498,152.052551 830.032043,151.937820 830.526428,151.971741 
	C840.388977,152.648468 850.262695,153.194778 860.110107,154.046234 
	C865.258240,154.491364 870.556030,154.886414 875.620667,159.100082 
	C873.384399,160.590149 871.721008,161.698502 870.057617,162.806854 
	C869.273987,162.857742 868.490295,162.908630 866.993408,162.639206 
	C859.208862,162.477081 852.137573,162.635254 845.066284,162.793427 
	C843.960754,162.845764 842.855286,162.898087 841.147827,162.669464 
	C839.717590,162.525238 838.889282,162.661987 838.061035,162.798737 
	C834.765625,162.837845 831.462585,162.757797 828.178345,162.969589 
	C826.682617,163.066025 825.224121,163.739182 823.315063,164.659073 
	C823.053284,166.123322 823.225037,167.079254 823.396851,168.035172 
	C823.486267,168.831467 823.575623,169.627762 823.400452,171.117035 
	C823.731934,173.753235 823.886475,177.032639 825.002747,177.401505 
	C829.176697,178.780746 833.670959,179.891403 838.035278,179.856949 
	C849.183411,179.768967 860.189758,178.893906 870.978577,183.514587 
	C874.575500,185.055054 876.945068,186.402374 877.992676,189.998535 
	C877.570740,190.113495 877.148865,190.228470 876.278198,190.053101 
	C875.207336,189.922928 874.585327,190.083099 873.963257,190.243256 
	C859.254761,190.380051 844.546204,190.516037 829.837708,190.654892 
	C828.184082,190.670502 826.530640,190.702362 824.152466,190.724915 
	C821.917847,193.192657 820.603271,195.657669 823.596069,198.023407 
	C823.665161,198.487335 823.734192,198.951279 823.585083,199.931061 
	C823.713379,201.001129 824.059875,201.555344 824.406372,202.109558 
	C824.406372,202.109543 824.726440,202.226929 824.972778,202.683044 
	C831.379456,205.064957 837.322815,207.040878 844.084595,207.259064 
	C855.652039,207.632309 867.165466,209.681046 878.701538,211.026138 
	C878.736267,212.767853 878.771057,214.509552 878.549927,216.684296 
	C878.294067,217.117325 878.076721,217.359924 878.076721,217.359924 
	C873.459351,217.559326 868.841187,217.943253 864.224731,217.924149 
	C849.304199,217.862381 834.384338,217.652420 819.044434,217.283630 
	C818.624634,217.067703 818.722961,216.996597 818.722961,216.996597 
	C818.722961,216.996597 818.291199,216.803009 818.024658,216.507538 
	C817.575989,216.081696 817.374390,215.998093 817.153442,215.961273 
z"/>
<path fill="#5D17DB" opacity="1.000000" stroke="none" 
	d="
M307.861694,148.048660 
	C316.914612,148.019791 325.967529,147.990921 335.152222,148.301010 
	C330.348969,148.759811 325.402557,148.722549 320.484802,149.079651 
	C318.612122,149.215622 316.805237,150.256943 314.968353,150.885651 
	C315.122406,151.458359 315.276428,152.031067 315.430481,152.603775 
	C320.265503,153.067551 325.100891,153.891144 329.935364,153.886002 
	C334.114807,153.881577 339.011078,155.780716 342.098969,150.926468 
	C342.098969,150.926468 342.583618,151.012436 342.784943,151.523743 
	C344.001892,153.010681 345.017548,153.986343 346.033173,154.962006 
	C346.033173,154.962006 345.999817,154.991745 346.025818,155.278229 
	C346.359283,156.040802 346.666779,156.516891 346.974243,156.992981 
	C346.974274,156.992981 347.012878,157.002014 346.994354,157.401535 
	C346.315918,159.201523 345.706390,160.628860 344.978912,161.993317 
	C344.468140,162.951324 343.217133,163.876480 343.294556,164.725342 
	C343.685333,169.010406 344.765839,173.252731 344.918243,177.534485 
	C345.126862,183.397720 349.470795,190.621124 340.349182,194.007111 
	C339.927155,194.163757 339.731628,195.152588 339.583130,195.789413 
	C338.154755,201.913361 334.245819,208.208267 340.911987,213.460007 
	C339.786316,215.107620 338.886078,216.425262 337.985840,217.742889 
	C336.911438,217.772263 335.837036,217.801620 334.399536,217.223785 
	C334.031647,209.289246 333.910522,201.959305 334.074707,194.635742 
	C334.148743,191.332886 333.302429,189.754944 329.626251,189.890350 
	C322.308594,190.159836 314.977386,190.059738 307.651764,190.112335 
	C302.809601,190.537735 297.967438,190.963135 292.583038,191.689636 
	C290.746857,192.224472 289.452881,192.458221 288.158936,192.691971 
	C294.165375,195.879730 291.895660,200.342514 291.425262,205.156631 
	C287.043579,201.386978 285.623444,204.869232 284.555359,207.442566 
	C283.241302,210.608292 285.964661,210.623367 288.120087,211.140427 
	C289.075958,211.369751 289.772095,212.682068 290.586121,213.502777 
	C289.680756,214.320572 288.888641,215.352707 287.843048,215.905106 
	C286.338257,216.700119 284.649139,217.146164 283.038696,217.741180 
	C282.270355,217.809784 281.502014,217.878387 280.234894,217.657150 
	C279.250153,216.933243 278.764191,216.499191 278.278229,216.065140 
	C278.235657,197.608978 277.984070,179.149765 278.255432,160.698212 
	C278.360931,153.527679 284.568634,148.397339 292.897339,147.962646 
	C293.492828,148.052963 293.862793,148.039398 293.862793,148.039398 
	C297.972076,147.986664 302.081390,147.933914 306.841492,147.970673 
	C307.492310,148.060150 307.861694,148.048660 307.861694,148.048660 
M333.566925,174.394012 
	C333.504395,170.964813 333.441895,167.535614 332.987152,163.469147 
	C332.606049,163.152771 332.224945,162.836395 331.365540,162.210129 
	C330.279907,162.344711 329.194275,162.479309 327.176544,162.806778 
	C316.071930,162.720337 304.967346,162.633896 293.254150,162.346344 
	C293.093231,165.871689 292.932281,169.397018 292.978607,173.617355 
	C294.369934,174.210480 295.761261,174.803589 297.072662,176.299652 
	C297.944458,177.498459 298.925140,179.803589 299.671722,179.730103 
	C310.837280,178.631104 322.957886,184.002777 332.977081,175.002457 
	C332.977081,175.002457 333.032013,174.991165 333.566925,174.394012 
z"/>
<path fill="#5E19D8" opacity="1.000000" stroke="none" 
	d="
M652.049622,188.692734 
	C652.039124,195.856201 651.939026,203.020981 652.042297,210.182800 
	C652.153198,217.871246 652.236633,217.874817 644.349609,217.950821 
	C642.200806,217.971542 640.051697,217.953979 636.986633,217.953979 
	C636.986633,212.061752 636.986633,206.476547 637.306641,200.186813 
	C639.802368,193.977203 642.108337,188.519073 644.114868,182.953018 
	C645.905640,177.985703 642.990845,169.962280 638.681946,167.554916 
	C638.093689,170.040085 637.515625,172.482391 636.908325,174.469177 
	C636.879150,170.429352 636.879150,166.845078 636.879150,162.908798 
	C626.349976,162.908798 616.551086,162.959885 606.752930,162.895279 
	C595.611267,162.821823 595.608215,162.777191 596.566895,173.891830 
	C596.592224,174.185760 596.890808,174.456116 597.189270,174.946701 
	C610.350098,174.946701 623.637390,174.946701 636.772644,175.190186 
	C636.189209,175.669861 635.356018,175.982574 635.384277,176.131165 
	C636.446899,181.708282 632.437195,180.872955 629.254395,180.988678 
	C619.364197,181.348236 609.465515,181.551758 599.590393,182.149933 
	C598.334778,182.225998 596.708801,184.088455 596.146057,185.483109 
	C595.581299,186.882660 596.132019,188.732285 596.247131,190.800507 
	C596.516907,194.257843 596.733459,197.299362 596.781128,200.659271 
	C596.335571,202.647232 596.058960,204.316803 595.408875,205.988190 
	C592.976135,204.677139 590.858826,203.444778 588.881470,202.018372 
	C587.851135,201.275101 587.175415,199.549393 586.152527,199.376984 
	C582.859131,198.821945 583.056030,196.645935 582.961609,194.223007 
	C582.776733,189.480728 582.353271,184.747757 582.028564,180.010925 
	C581.942566,173.542374 581.627014,167.066437 581.834778,160.607330 
	C582.045288,154.064667 588.354248,147.976837 594.935181,147.915756 
	C609.380005,147.781708 623.829834,147.715408 638.272339,147.948959 
	C647.093628,148.091599 651.793274,154.329651 651.722900,165.896423 
	C651.470398,167.740692 651.406250,168.868790 651.250610,170.449310 
	C651.227783,174.262863 651.296509,177.623978 651.292969,181.391449 
	C651.497009,184.096115 651.773315,186.394424 652.049622,188.692734 
z"/>
<path fill="#5914D7" opacity="1.000000" stroke="none" 
	d="
M164.389038,218.924240 
	C161.779251,218.539398 159.067612,218.462051 156.600922,217.645111 
	C155.290100,217.211014 153.501205,215.522293 153.465942,214.353500 
	C153.125870,203.082687 153.035767,191.801926 153.047104,180.524185 
	C153.051270,176.378799 153.225937,172.189346 153.852493,168.101181 
	C154.488602,163.950653 152.889664,162.748993 149.020935,162.830185 
	C141.577194,162.986374 134.127853,162.875671 126.415031,162.875671 
	C126.415031,157.669052 126.415031,153.244217 126.415031,148.353333 
	C149.626846,148.353333 172.812271,148.353333 196.668518,148.353333 
	C196.668518,152.426544 196.927643,156.400589 196.488251,160.295807 
	C196.376923,161.282913 194.061737,162.714020 192.722443,162.755554 
	C185.087601,162.992340 177.441635,162.870422 169.135925,162.870422 
	C169.135925,177.873627 169.135925,192.620041 169.228195,208.235275 
	C167.503647,212.290588 169.988281,217.637177 164.389038,218.924240 
z"/>
<path fill="#5B17D7" opacity="1.000000" stroke="none" 
	d="
M799.768433,147.952301 
	C802.617004,147.728882 803.732727,148.428726 803.935364,151.187790 
	C804.797180,162.922760 804.904846,162.913651 793.011658,162.924576 
	C787.849854,162.929337 782.687927,162.933762 777.526306,162.965332 
	C777.232788,162.967117 776.940735,163.214081 776.138550,163.578125 
	C776.138550,181.257446 776.138550,199.170563 776.138550,217.515167 
	C771.067444,217.515167 766.502380,217.515167 761.496338,217.515167 
	C761.400330,216.074356 761.225586,214.640671 761.221375,213.206497 
	C761.177673,198.210999 760.977478,183.212128 761.247498,168.221878 
	C761.330017,163.640930 759.789001,162.512360 755.524658,162.748917 
	C749.377930,163.089890 743.197693,162.774979 737.035461,162.910461 
	C734.344482,162.969635 733.013733,162.203796 733.159973,159.256683 
	C733.339111,155.646790 733.202698,152.021225 733.202698,147.945526 
	C755.740784,147.945526 777.518127,147.945526 799.768433,147.952301 
z"/>
<path fill="#5C16D8" opacity="1.000000" stroke="none" 
	d="
M716.942078,176.188705 
	C723.746338,178.459488 727.872803,183.633179 727.939697,190.462387 
	C727.991821,195.776093 727.849365,201.104599 727.488770,206.405823 
	C727.129944,211.681778 722.238525,217.470825 716.997253,217.556732 
	C697.245972,217.880432 677.486145,217.686646 657.645996,217.686646 
	C657.645996,212.899536 657.645996,208.360092 657.645996,203.182739 
	C675.750549,203.182739 693.949707,203.182739 712.461548,203.182739 
	C712.670349,198.993484 712.849182,195.406189 713.000793,191.041107 
	C711.669250,188.233734 710.720520,185.749893 708.926697,184.345612 
	C707.858337,183.509247 703.958862,184.113205 703.892029,184.505737 
	C703.115417,189.064240 699.519531,189.027267 696.290222,190.321106 
	C701.083130,190.321106 705.876038,190.321106 710.668945,190.321106 
	C696.437317,190.303070 682.205750,190.285049 667.910767,190.101562 
	C667.475891,188.527725 667.104309,187.119339 666.613831,185.260040 
	C670.870117,184.652176 675.139648,184.042404 679.537109,183.414383 
	C678.157043,181.465637 677.025391,179.867676 675.226929,177.328232 
	C678.221252,177.177811 679.976868,177.018051 681.732910,177.013351 
	C691.207642,176.988098 700.683105,177.052139 710.157104,176.964157 
	C712.420959,176.943115 714.680542,176.459534 716.942078,176.188705 
M678.479065,189.011169 
	C678.024475,189.107224 677.569885,189.203278 677.115295,189.299332 
	C677.160522,189.456345 677.205750,189.613358 677.251038,189.770386 
	C677.843262,189.522476 678.435547,189.274582 678.479065,189.011169 
M685.786987,189.931290 
	C686.212952,189.823746 686.638916,189.716187 687.064819,189.608643 
	C686.992371,189.427032 686.919922,189.245422 686.847473,189.063812 
	C686.338623,189.324417 685.829712,189.585007 685.786987,189.931290 
z"/>
<path fill="#5C16D9" opacity="1.000000" stroke="none" 
	d="
M510.012451,152.955841 
	C513.070679,151.258224 516.093994,148.170456 519.192993,148.092514 
	C536.992676,147.644821 554.810425,147.906769 572.622009,147.947281 
	C573.424866,147.949097 574.227295,148.137268 575.465088,148.293610 
	C575.465088,152.353790 575.767334,156.339630 575.264282,160.221054 
	C575.129211,161.263153 572.551697,162.723709 571.078247,162.744034 
	C555.599609,162.957397 540.117432,162.913147 524.636230,162.954361 
	C523.333801,162.957825 522.031616,163.064545 520.976318,163.112167 
	C520.976318,171.935944 520.976318,180.489212 520.858643,189.828598 
	C520.445435,193.738663 520.149841,196.862610 519.520386,199.937439 
	C514.434692,196.942581 511.593170,192.971786 510.816406,187.174927 
	C510.305603,183.362610 508.408264,179.736084 507.095764,175.560059 
	C507.067657,170.734131 507.075623,166.374512 507.419281,161.959717 
	C511.743195,159.737900 507.621246,155.525345 510.012451,152.955841 
z"/>
<path fill="#5F1ADE" opacity="1.000000" stroke="none" 
	d="
M716.711304,176.071838 
	C714.680542,176.459534 712.420959,176.943115 710.157104,176.964157 
	C700.683105,177.052139 691.207642,176.988098 681.732910,177.013351 
	C679.976868,177.018051 678.221252,177.177811 675.226929,177.328232 
	C677.025391,179.867676 678.157043,181.465637 679.537109,183.414383 
	C675.139648,184.042404 670.870117,184.652176 666.613831,185.260040 
	C667.104309,187.119339 667.475891,188.527725 667.564087,189.934799 
	C665.958862,189.400558 664.636902,188.867630 663.036621,187.712708 
	C661.444153,184.732437 660.130005,182.374161 658.840149,179.602142 
	C658.558228,175.786102 658.251953,172.383835 657.974609,168.554321 
	C657.959045,165.876358 657.914490,163.625595 657.869873,161.374847 
	C658.726196,153.237869 664.015076,148.163055 671.971497,147.935028 
	C675.266663,147.840591 678.566040,147.895935 682.762695,147.967407 
	C693.289490,148.323166 702.916382,148.719009 712.545349,148.777725 
	C714.914795,148.792175 717.290894,147.707855 719.663940,147.128677 
	C721.895569,147.544846 724.127258,147.961014 726.386719,148.382355 
	C726.557434,148.621933 726.864990,148.861237 726.907654,149.140930 
	C728.976379,162.705978 728.918640,162.765778 715.495667,162.845810 
	C708.352783,162.888382 701.210022,162.958466 693.329224,162.865082 
	C687.834106,162.498749 683.074524,162.094498 678.320984,162.155914 
	C676.254211,162.182602 672.445679,163.111496 672.426514,163.724289 
	C672.308228,167.510956 670.173523,171.791885 674.103149,175.238251 
	C674.733093,175.471970 675.245667,175.516525 675.758301,175.561096 
	C677.913574,175.442688 680.068787,175.324295 683.025269,175.490051 
	C694.538818,175.840225 705.251099,175.906219 715.963379,175.972198 
	C716.135803,175.966446 716.308167,175.960709 716.711304,176.071838 
z"/>
<path fill="#BDC7FA" opacity="1.000000" stroke="none" 
	d="
M294.953461,258.258972 
	C299.075470,263.135834 303.250244,267.969360 307.299927,272.905548 
	C309.781433,275.930267 311.994629,279.175293 314.481384,282.195404 
	C315.610596,283.566803 317.111053,284.632507 318.791534,286.151855 
	C325.484772,281.469604 332.311951,276.693604 339.485748,272.234375 
	C339.411987,273.505005 338.991669,274.458862 338.672729,275.182648 
	C346.277344,280.592407 353.344696,270.557129 361.452393,275.041107 
	C360.003418,277.092133 358.842499,278.735352 357.443665,280.715424 
	C358.590942,280.858612 359.374573,280.956421 360.158203,281.054260 
	C348.041534,289.650238 335.924561,298.245758 323.808777,306.843018 
	C322.600128,307.700653 321.372955,308.535156 320.199127,309.438538 
	C315.448792,313.094452 314.478821,313.018280 310.430176,308.067291 
	C311.041718,302.319977 308.314209,298.433838 305.206635,294.717133 
	C301.597595,290.400665 297.867188,286.180328 294.412598,281.744476 
	C293.703613,280.834167 293.413483,278.786133 293.966339,277.937317 
	C294.498688,277.119904 296.372070,276.923798 297.656708,276.922577 
	C298.832611,276.921478 300.009064,277.545715 302.741974,278.355774 
	C300.030762,274.015259 298.128387,270.969666 296.112030,267.741608 
	C297.618317,267.530121 298.601654,267.392059 301.202576,267.026886 
	C296.161316,264.965729 292.103668,263.451080 294.953461,258.258972 
z"/>
<path fill="#4F6BF4" opacity="1.000000" stroke="none" 
	d="
M770.950195,93.852783 
	C781.157349,87.252434 791.364563,80.652100 801.898621,73.840378 
	C799.561768,70.163536 797.271606,66.808571 795.284729,63.282738 
	C794.689209,62.226009 794.396545,60.342148 794.955261,59.475548 
	C795.517273,58.603775 797.422668,57.966721 798.549011,58.189430 
	C807.958252,60.049786 817.323181,62.134205 826.702454,64.146523 
	C828.913330,64.620865 831.127991,65.078117 833.993958,65.680489 
	C830.960388,79.385811 827.927979,93.085510 824.895630,106.785210 
	C824.475098,106.943420 824.054504,107.101624 823.633972,107.259827 
	C821.322876,103.596855 819.062744,99.900513 816.689636,96.278152 
	C812.302979,89.581993 812.322876,89.673096 805.420166,94.163498 
	C800.265320,97.516830 794.967651,100.650520 789.379639,103.569977 
	C792.717163,98.263672 796.408691,93.269402 800.100220,88.275139 
	C799.931946,87.680054 799.763672,87.084961 799.595398,86.489876 
	C795.776001,86.489876 791.760376,85.751312 788.192566,86.698830 
	C784.667114,87.635094 781.706055,90.521095 778.282776,92.080536 
	C776.035767,93.104164 773.407654,93.291153 770.950195,93.852783 
z"/>
<path fill="#C3CEFA" opacity="1.000000" stroke="none" 
	d="
M294.873932,257.911133 
	C292.103668,263.451080 296.161316,264.965729 301.202576,267.026886 
	C298.601654,267.392059 297.618317,267.530121 296.112030,267.741608 
	C298.128387,270.969666 300.030762,274.015259 302.741974,278.355774 
	C300.009064,277.545715 298.832611,276.921478 297.656708,276.922577 
	C296.372070,276.923798 294.498688,277.119904 293.966339,277.937317 
	C293.413483,278.786133 293.703613,280.834167 294.412598,281.744476 
	C297.867188,286.180328 301.597595,290.400665 305.206635,294.717133 
	C308.314209,298.433838 311.041718,302.319977 310.213074,307.794434 
	C309.604370,307.414307 309.255524,306.791138 308.797211,305.545837 
	C308.145721,304.613739 307.603729,304.303802 307.061707,303.993835 
	C306.730194,303.556213 306.398682,303.118591 305.981445,302.089294 
	C305.483154,301.067474 305.070587,300.637329 304.658020,300.207184 
	C304.658020,300.207184 304.772308,300.185028 304.789612,299.876770 
	C303.486053,298.414032 302.165192,297.259583 300.844299,296.105133 
	C300.844299,296.105133 300.929565,296.095978 300.822449,295.893555 
	C300.445038,295.474243 300.174744,295.257355 299.904449,295.040497 
	C299.575836,294.636566 299.247223,294.232605 298.885956,293.195496 
	C298.179901,292.082825 297.506470,291.603394 296.833069,291.123932 
	C296.833069,291.123932 296.920013,291.106750 296.820618,290.905823 
	C296.466827,290.480835 296.212494,290.256714 295.958130,290.032623 
	C295.958130,290.032623 296.000000,290.001068 295.956604,289.726074 
	C295.381775,288.965576 294.850311,288.480042 294.318848,287.994507 
	C294.217773,287.856323 294.116699,287.718140 293.951965,287.006714 
	C293.269440,285.955811 292.650604,285.478210 292.031738,285.000610 
	C292.031738,285.000610 291.996094,285.010254 291.954742,284.656830 
	C291.128754,283.771851 290.344116,283.240295 289.559479,282.708771 
	C289.559479,282.708771 289.367615,282.619110 289.465729,282.197937 
	C289.022339,281.179901 288.480865,280.583038 287.939362,279.986176 
	C287.939362,279.986176 287.802063,279.887695 287.735870,279.472260 
	C287.314758,278.791351 286.959839,278.525879 286.604919,278.260406 
	C286.604919,278.260406 286.739990,278.239777 286.660492,278.030457 
	C286.279510,277.627319 285.978027,277.433502 285.676544,277.239685 
	C285.676544,277.239685 285.803131,277.216736 285.700653,277.008881 
	C285.275421,276.633240 284.952637,276.465454 284.629883,276.297668 
	C284.629883,276.297668 284.796051,276.194489 284.790833,275.900635 
	C282.822906,273.432617 280.860229,271.258392 278.897552,269.084198 
	C278.897552,269.084198 278.987579,269.004822 278.941742,268.714966 
	C277.889343,267.304352 276.882782,266.183624 275.876221,265.062897 
	C275.876221,265.062897 275.953796,265.050934 275.830566,264.854034 
	C275.423035,264.460999 275.138733,264.264862 274.854431,264.068726 
	C274.854431,264.068726 274.936279,264.043793 274.942596,263.712402 
	C273.476135,261.752472 272.003326,260.123962 270.530548,258.495453 
	C270.530548,258.495453 270.788025,258.246185 270.637207,258.099915 
	C270.282745,257.596832 269.995758,257.507721 269.625397,257.686310 
	C269.625397,257.686310 269.457703,257.622986 269.474365,257.222229 
	C268.684204,256.215088 267.877380,255.608765 267.070557,255.002441 
	C267.070557,255.002441 266.996674,254.995605 267.000549,254.583130 
	C266.002289,249.078888 261.518921,245.172943 255.571030,243.973587 
	C251.350067,243.122482 247.173233,242.052536 242.976685,241.080261 
	C243.073273,240.679489 243.169846,240.278717 243.266418,239.877930 
	C245.490814,240.308762 247.733109,240.663910 249.936279,241.184570 
	C256.629761,242.766464 256.662506,242.752930 255.260361,236.085892 
	C255.193161,235.766388 255.107162,235.389191 255.210739,235.104706 
	C256.566040,231.382507 253.938400,230.667145 251.344223,229.576660 
	C247.356186,227.900284 243.508987,225.888947 238.260849,223.378067 
	C241.066498,223.211136 242.461777,223.128128 243.857071,223.045120 
	C252.164001,224.729431 260.866577,225.411224 268.629120,228.474915 
	C273.267883,230.305725 276.633972,235.693863 280.213379,239.796005 
	C285.248260,245.566132 289.950134,251.626816 294.873932,257.911133 
z"/>
<path fill="#5D1AE0" opacity="1.000000" stroke="none" 
	d="
M507.131805,176.026367 
	C508.408264,179.736084 510.305603,183.362610 510.816406,187.174927 
	C511.593170,192.971786 514.434692,196.942581 519.579224,200.349304 
	C519.883423,204.593414 522.684204,203.868759 524.887329,203.872849 
	C541.425781,203.903473 557.964294,203.889526 575.166931,203.889526 
	C575.166931,208.459656 575.166931,213.229080 574.798584,218.025726 
	C573.292175,218.355331 572.154114,218.657700 571.016113,218.960083 
	C553.466980,218.564117 535.913757,218.290085 518.371094,217.701126 
	C512.787537,217.513672 508.872253,214.325546 506.602936,209.125931 
	C506.004822,207.755478 504.901733,206.605408 504.104187,205.023209 
	C504.797272,203.372421 505.893158,202.072281 505.948761,200.729095 
	C506.131500,196.313461 505.937012,191.882233 505.942505,187.247055 
	C505.997620,187.037125 506.114166,186.618973 506.114166,186.618973 
	C506.185638,185.998276 506.257141,185.377579 506.591675,183.964630 
	C506.947083,180.790375 507.039429,178.408371 507.131805,176.026367 
z"/>
<path fill="#AAB6F9" opacity="1.000000" stroke="none" 
	d="
M420.972198,238.700134 
	C409.283936,246.710510 397.595642,254.720886 385.343994,262.741547 
	C385.319824,261.514496 385.542938,259.918488 386.460205,259.110291 
	C388.773834,257.071747 391.400116,255.388046 393.828461,253.615158 
	C390.427917,246.814819 384.467468,244.924500 378.617584,248.661026 
	C371.524597,253.191559 364.558136,257.920074 357.486267,262.484406 
	C357.226959,262.651764 356.432953,261.990723 355.888123,261.715729 
	C363.660278,255.730072 371.295349,249.554916 379.239929,243.807602 
	C388.778107,236.907440 398.573090,230.361816 408.278442,223.694107 
	C409.219604,223.047516 410.312683,222.622055 411.745911,222.354645 
	C414.906769,221.761459 417.716034,221.058914 420.391357,220.013565 
	C423.405884,218.835663 426.228394,216.556610 429.271912,216.282455 
	C431.217224,216.107224 433.941315,218.291901 435.362396,220.148621 
	C437.204010,222.554855 435.553741,224.693558 433.264801,226.320816 
	C429.767670,228.807022 426.244141,231.295456 423.035461,234.127014 
	C421.892548,235.135590 421.634277,237.146667 420.972198,238.700134 
M388.390350,243.604462 
	C388.738983,242.997726 389.087646,242.391006 389.436279,241.784271 
	C389.012695,241.732635 388.252808,241.558670 388.219910,241.649139 
	C387.998993,242.256470 387.932587,242.920013 388.390350,243.604462 
z"/>
<path fill="#7C8BF5" opacity="1.000000" stroke="none" 
	d="
M571.339966,219.045776 
	C572.154114,218.657700 573.292175,218.355331 575.165833,218.020294 
	C577.955505,217.323883 580.009460,216.660141 582.350220,216.278397 
	C583.422485,216.747375 584.201172,217.059433 584.994446,217.102554 
	C596.411560,217.723053 596.412048,217.714355 595.782349,205.986374 
	C596.058960,204.316803 596.335571,202.647232 597.121460,200.523254 
	C602.528564,196.830322 607.426453,193.591766 612.833496,190.302414 
	C618.472961,190.180893 623.605103,189.986923 628.733032,190.066895 
	C637.502014,190.203674 637.342651,188.255325 636.952393,198.579727 
	C625.209106,205.688965 613.145447,212.331055 601.842834,220.082870 
	C595.079773,224.721298 588.779846,224.098434 581.848816,222.012482 
	C578.470825,220.995850 575.059875,220.088348 571.339966,219.045776 
z"/>
<path fill="#D4DDFD" opacity="1.000000" stroke="none" 
	d="
M188.779694,213.070587 
	C188.984131,213.056702 189.188583,213.042816 189.781448,213.447128 
	C193.210892,215.316544 196.185852,216.933517 199.308990,218.178879 
	C203.640808,219.906204 208.281403,220.957214 212.430710,223.020096 
	C217.937149,225.757645 223.146957,229.112579 228.368057,232.387436 
	C229.538712,233.121674 230.228043,234.623260 231.304871,235.980743 
	C223.700912,235.980743 216.887787,235.980743 210.074646,235.980743 
	C210.074646,235.980743 210.016754,236.009109 209.936310,235.827545 
	C209.557358,235.395355 209.279556,235.426224 209.022430,235.738617 
	C208.548706,235.750214 208.074997,235.761810 207.105057,235.431671 
	C205.743591,235.060486 204.878357,235.031036 204.013107,235.001587 
	C193.262360,232.642365 182.511627,230.283157 171.195343,227.508118 
	C167.565338,222.448410 170.074890,218.136932 171.875183,214.072418 
	C172.472336,212.724243 175.242050,211.623047 176.999634,211.649734 
	C180.932602,211.709442 184.853745,212.548782 188.779694,213.070587 
z"/>
<path fill="#C8D0F8" opacity="1.000000" stroke="none" 
	d="
M210.343018,236.271088 
	C216.887787,235.980743 223.700912,235.980743 231.304871,235.980743 
	C230.228043,234.623260 229.538712,233.121674 228.368057,232.387436 
	C223.146957,229.112579 217.937149,225.757645 212.430710,223.020096 
	C208.281403,220.957214 203.640808,219.906204 199.308990,218.178879 
	C196.185852,216.933517 193.210892,215.316544 190.079208,213.523468 
	C193.797867,213.695755 197.607178,214.209900 201.696442,214.983582 
	C206.664566,218.945755 211.956360,217.277328 217.449066,216.739471 
	C220.435471,217.388458 223.027283,218.428925 225.715652,219.054062 
	C231.496979,220.398438 237.328018,221.528900 243.497894,222.896027 
	C242.461777,223.128128 241.066498,223.211136 238.260849,223.378067 
	C243.508987,225.888947 247.356186,227.900284 251.344223,229.576660 
	C253.938400,230.667145 256.566040,231.382507 255.210739,235.104706 
	C255.107162,235.389191 255.193161,235.766388 255.260361,236.085892 
	C256.662506,242.752930 256.629761,242.766464 249.936279,241.184570 
	C247.733109,240.663910 245.490814,240.308762 243.266418,239.877930 
	C243.169846,240.278717 243.073273,240.679489 242.976685,241.080261 
	C247.173233,242.052536 251.350067,243.122482 255.571030,243.973587 
	C261.518921,245.172943 266.002289,249.078888 267.004150,254.546204 
	C263.265656,248.875320 257.706696,246.236633 250.781616,244.982849 
	C237.324432,242.546387 223.994217,239.408661 210.343018,236.271088 
z"/>
<path fill="#B4BFFC" opacity="1.000000" stroke="none" 
	d="
M355.521790,261.795593 
	C356.432953,261.990723 357.226959,262.651764 357.486267,262.484406 
	C364.558136,257.920074 371.524597,253.191559 378.617584,248.661026 
	C384.467468,244.924500 390.427917,246.814819 393.828461,253.615158 
	C391.400116,255.388046 388.773834,257.071747 386.460205,259.110291 
	C385.542938,259.918488 385.319824,261.514496 385.076141,262.954193 
	C378.335327,268.210510 371.296387,273.260864 364.265228,278.321960 
	C363.101135,279.159912 361.970856,280.044830 360.491577,280.981140 
	C359.374573,280.956421 358.590942,280.858612 357.443665,280.715424 
	C358.842499,278.735352 360.003418,277.092133 361.452393,275.041107 
	C353.344696,270.557129 346.277344,280.592407 338.672729,275.182648 
	C338.991669,274.458862 339.411987,273.505005 339.839600,272.219971 
	C339.846863,271.888824 339.874695,271.917175 340.238159,271.923859 
	C341.382080,271.259216 342.162537,270.587860 342.942993,269.916534 
	C342.942993,269.916534 342.991760,269.994354 343.263367,269.951050 
	C344.007080,269.562927 344.479187,269.218109 344.951324,268.873291 
	C344.951324,268.873291 344.921997,268.946991 345.008514,268.913086 
	C345.095032,268.879211 345.517181,268.812408 345.517181,268.812408 
	C348.729919,266.500092 351.942657,264.187775 355.521790,261.795593 
z"/>
<path fill="#939FFA" opacity="1.000000" stroke="none" 
	d="
M505.887421,187.456985 
	C505.937012,191.882233 506.131500,196.313461 505.948761,200.729095 
	C505.893158,202.072281 504.797272,203.372421 503.855164,204.822327 
	C502.922363,204.991760 502.312317,205.031128 501.242737,205.075226 
	C496.771149,204.377869 492.759003,203.675766 488.228729,202.611572 
	C484.610138,201.598022 481.524384,200.579391 478.402893,200.454681 
	C476.910126,200.395035 475.349609,202.030502 473.819794,202.898224 
	C466.103485,203.178101 458.388519,203.584045 450.670074,203.668320 
	C448.030334,203.697144 444.667542,203.864090 445.358826,198.981018 
	C449.134369,195.972717 452.582886,193.458252 456.031403,190.943756 
	C461.278778,190.638046 466.522888,190.168564 471.774261,190.064941 
	C479.697754,189.908554 487.626953,189.946335 495.552307,190.031616 
	C498.286377,190.061035 500.083954,189.336700 500.196869,185.823502 
	C501.322144,185.908676 502.368683,186.442261 504.058990,187.133026 
	C505.097656,187.345795 505.492523,187.401382 505.887421,187.456985 
z"/>
<path fill="#6078F6" opacity="1.000000" stroke="none" 
	d="
M713.173645,129.040161 
	C724.886841,121.772629 736.599976,114.505089 748.723572,107.472961 
	C749.734985,108.045151 750.327148,108.401428 750.952271,108.685013 
	C751.007812,108.710220 751.278076,108.262070 751.448608,108.033752 
	C750.691101,107.676018 749.933594,107.318275 749.176086,106.960541 
	C753.217224,104.378838 757.258423,101.797134 761.482910,99.455711 
	C760.109253,101.129456 758.552185,102.562912 756.726868,104.039017 
	C756.151672,104.371704 755.844727,104.661751 755.537842,104.951805 
	C755.733948,105.118896 755.930054,105.285980 756.126221,105.453079 
	C756.418640,104.970055 756.711060,104.487022 757.439575,104.003510 
	C760.177368,103.864311 762.519775,103.408546 764.767151,103.695686 
	C766.326843,103.894958 768.250122,104.781891 769.073242,105.996857 
	C769.641907,106.836235 768.993469,109.031982 768.208740,110.139778 
	C766.809631,112.114731 765.080383,113.964668 763.162109,115.442276 
	C757.718933,119.635147 752.108093,123.610146 746.569580,127.679497 
	C745.545166,128.432159 743.015503,129.129822 746.412659,130.176514 
	C738.413635,135.203598 730.414612,140.230682 722.002380,145.143585 
	C723.063904,142.684433 724.170410,139.964188 726.094177,138.076965 
	C729.510681,134.725342 733.489136,131.954803 737.104065,128.794281 
	C739.523010,126.679420 739.182068,124.652504 736.085999,123.669189 
	C734.597900,123.196548 732.680481,122.974602 731.287842,123.505669 
	C726.831970,125.204849 722.477905,127.201965 718.193970,129.306732 
	C716.327515,130.223740 714.734558,131.515991 713.173645,129.040161 
M743.441956,113.137337 
	C744.085083,113.028061 744.745056,112.967216 745.352356,112.755318 
	C745.439636,112.724861 745.272766,111.966118 745.223511,111.544434 
	C744.617798,111.884895 744.012146,112.225349 743.441956,113.137337 
z"/>
<path fill="#687DF8" opacity="1.000000" stroke="none" 
	d="
M712.819580,129.098923 
	C714.734558,131.515991 716.327515,130.223740 718.193970,129.306732 
	C722.477905,127.201965 726.831970,125.204849 731.287842,123.505669 
	C732.680481,122.974602 734.597900,123.196548 736.085999,123.669189 
	C739.182068,124.652504 739.523010,126.679420 737.104065,128.794281 
	C733.489136,131.954803 729.510681,134.725342 726.094177,138.076965 
	C724.170410,139.964188 723.063904,142.684433 721.733521,145.297958 
	C721.365173,146.017441 720.852600,146.468369 720.001953,147.023987 
	C717.290894,147.707855 714.914795,148.792175 712.545349,148.777725 
	C702.916382,148.719009 693.289490,148.323166 683.212646,148.015625 
	C692.664185,141.705627 702.564880,135.431656 712.819580,129.098923 
M711.733398,132.503845 
	C711.988342,132.262115 712.243225,132.020401 712.498108,131.778656 
	C712.398071,131.673203 712.298035,131.567749 712.197998,131.462311 
	C711.942932,131.704376 711.687927,131.946442 711.733398,132.503845 
z"/>
<path fill="#5771F6" opacity="1.000000" stroke="none" 
	d="
M756.995117,103.996368 
	C758.552185,102.562912 760.109253,101.129456 761.829590,99.420372 
	C764.734558,97.369141 767.476257,95.593544 770.584045,93.835373 
	C773.407654,93.291153 776.035767,93.104164 778.282776,92.080536 
	C781.706055,90.521095 784.667114,87.635094 788.192566,86.698830 
	C791.760376,85.751312 795.776001,86.489876 799.595398,86.489876 
	C799.763672,87.084961 799.931946,87.680054 800.100220,88.275139 
	C796.408691,93.269402 792.717163,98.263672 789.033508,103.624176 
	C775.058289,112.694054 761.075195,121.397675 746.752441,130.138916 
	C743.015503,129.129822 745.545166,128.432159 746.569580,127.679497 
	C752.108093,123.610146 757.718933,119.635147 763.162109,115.442276 
	C765.080383,113.964668 766.809631,112.114731 768.208740,110.139778 
	C768.993469,109.031982 769.641907,106.836235 769.073242,105.996857 
	C768.250122,104.781891 766.326843,103.894958 764.767151,103.695686 
	C762.519775,103.408546 760.177368,103.864311 757.437744,104.001518 
	C757.000000,104.000000 756.995117,103.996376 756.995117,103.996368 
z"/>
<path fill="#8793F5" opacity="1.000000" stroke="none" 
	d="
M582.063477,215.996399 
	C580.009460,216.660141 577.955505,217.323883 575.534180,217.993073 
	C575.166931,213.229080 575.166931,208.459656 575.166931,203.889526 
	C557.964294,203.889526 541.425781,203.903473 524.887329,203.872849 
	C522.684204,203.868759 519.883423,204.593414 519.913086,200.398422 
	C520.149841,196.862610 520.445435,193.738663 520.976196,190.282318 
	C532.935608,192.614532 544.634094,195.400711 556.395142,197.891556 
	C562.124939,199.105057 567.971436,199.767273 574.103516,201.230255 
	C575.192871,201.775223 575.943970,201.768967 576.695007,201.762726 
	C577.518677,201.764038 578.342407,201.765350 579.175903,202.061981 
	C578.787109,203.061325 577.889954,203.948837 578.070618,204.439682 
	C579.261292,207.674469 580.683960,210.823883 582.067383,214.332703 
	C582.090332,215.108322 582.076904,215.552368 582.063477,215.996399 
z"/>
<path fill="#601BE1" opacity="1.000000" stroke="none" 
	d="
M636.927002,198.931427 
	C637.342651,188.255325 637.502014,190.203674 628.733032,190.066895 
	C623.605103,189.986923 618.472961,190.180893 612.535156,190.305573 
	C611.145874,190.228592 610.564087,190.097626 609.680542,189.701599 
	C605.945618,189.581268 602.512573,189.725983 598.721558,189.955841 
	C597.640320,190.155548 596.917114,190.270111 596.193848,190.384674 
	C596.132019,188.732285 595.581299,186.882660 596.146057,185.483109 
	C596.708801,184.088455 598.334778,182.225998 599.590393,182.149933 
	C609.465515,181.551758 619.364197,181.348236 629.254395,180.988678 
	C632.437195,180.872955 636.446899,181.708282 635.384277,176.131165 
	C635.356018,175.982574 636.189209,175.669861 636.810730,175.212601 
	C637.000854,174.991516 636.937561,174.924713 636.937561,174.924713 
	C637.515625,172.482391 638.093689,170.040085 638.681946,167.554916 
	C642.990845,169.962280 645.905640,177.985703 644.114868,182.953018 
	C642.108337,188.519073 639.802368,193.977203 637.368530,199.719543 
	C637.040833,199.732239 636.971252,199.507690 636.927002,198.931427 
z"/>
<path fill="#5C17D5" opacity="1.000000" stroke="none" 
	d="
M499.960754,160.548660 
	C496.081177,160.014297 492.338776,158.789108 488.500610,158.087952 
	C483.500000,157.174423 478.441864,156.400467 473.375397,156.061951 
	C464.939789,155.498306 456.427551,155.752182 448.054962,154.757767 
	C445.211334,154.420013 442.691986,151.352112 440.017334,149.145096 
	C441.088928,148.460968 442.167114,147.906509 443.246368,147.904419 
	C461.159576,147.869720 479.072937,147.901245 496.986206,147.933472 
	C497.788879,147.934906 498.591309,148.083252 500.055298,148.229050 
	C500.055298,152.254837 500.055298,156.172852 499.960754,160.548660 
z"/>
<path fill="#5814C9" opacity="1.000000" stroke="none" 
	d="
M870.373840,162.970596 
	C871.721008,161.698502 873.384399,160.590149 875.620667,159.100082 
	C870.556030,154.886414 865.258240,154.491364 860.110107,154.046234 
	C850.262695,153.194778 840.388977,152.648468 830.526428,151.971741 
	C830.032043,151.937820 829.385498,152.052551 829.070251,151.787827 
	C823.891968,147.439636 819.301086,150.320297 814.315247,152.942734 
	C816.904053,151.228760 819.818359,148.012955 822.810730,147.938538 
	C840.612488,147.495758 858.432190,147.775986 876.245850,147.832718 
	C876.895081,147.834793 877.543579,148.037933 878.597046,148.215622 
	C878.597046,152.957535 878.597046,157.668243 878.597046,163.134338 
	C875.887573,163.134338 873.288818,163.134338 870.373840,162.970596 
z"/>
<path fill="#5B16CF" opacity="1.000000" stroke="none" 
	d="
M338.435242,217.847839 
	C338.886078,216.425262 339.786316,215.107620 340.911987,213.460007 
	C334.245819,208.208267 338.154755,201.913361 339.583130,195.789413 
	C339.731628,195.152588 339.927155,194.163757 340.349182,194.007111 
	C349.470795,190.621124 345.126862,183.397720 344.918243,177.534485 
	C344.765839,173.252731 343.685333,169.010406 343.294556,164.725342 
	C343.217133,163.876480 344.468140,162.951324 344.978912,161.993317 
	C345.706390,160.628860 346.315918,159.201523 346.984619,157.418823 
	C347.542236,159.197342 348.542603,161.352875 348.567688,163.519714 
	C348.752747,179.491974 348.733368,195.466553 348.799591,211.440308 
	C348.826660,217.969330 348.850677,217.972809 342.377167,218.002975 
	C341.213104,218.008392 340.048798,217.970596 338.435242,217.847839 
z"/>
<path fill="#5814C9" opacity="1.000000" stroke="none" 
	d="
M878.338501,189.751862 
	C876.945068,186.402374 874.575500,185.055054 870.978577,183.514587 
	C860.189758,178.893906 849.183411,179.768967 838.035278,179.856949 
	C833.670959,179.891403 829.176697,178.780746 825.002747,177.401505 
	C823.886475,177.032639 823.731934,173.753235 823.286621,171.506195 
	C824.773499,172.254913 826.080505,174.180252 827.450134,174.225800 
	C842.062256,174.711807 856.684204,174.905411 871.303772,175.164215 
	C873.595886,175.204803 875.889282,175.169907 878.684387,175.169907 
	C878.684387,180.360718 878.684387,184.932953 878.338501,189.751862 
z"/>
<path fill="#939FFA" opacity="1.000000" stroke="none" 
	d="
M421.256348,238.564423 
	C421.634277,237.146667 421.892548,235.135590 423.035461,234.127014 
	C426.244141,231.295456 429.767670,228.807022 433.264801,226.320816 
	C435.553741,224.693558 437.204010,222.554855 435.362396,220.148621 
	C433.941315,218.291901 431.217224,216.107224 429.271912,216.282455 
	C426.228394,216.556610 423.405884,218.835663 420.391357,220.013565 
	C417.716034,221.058914 414.906769,221.761459 412.102966,222.322174 
	C413.388794,220.892166 414.728302,219.755280 416.077332,218.257385 
	C417.173126,216.990768 418.259399,216.085175 420.024506,215.099396 
	C421.180573,214.371307 421.657776,213.723389 422.134979,213.075470 
	C422.134979,213.075455 422.044434,213.203934 422.077728,213.273605 
	C424.732391,212.185181 427.353729,211.027069 430.318115,209.784149 
	C435.585602,215.088669 441.540924,218.230057 449.397186,218.019470 
	C440.380676,224.764511 430.960571,231.596619 421.256348,238.564423 
z"/>
<path fill="#5C17D5" opacity="1.000000" stroke="none" 
	d="
M499.921997,181.544067 
	C494.388489,181.350189 488.942932,180.292419 483.482391,180.208313 
	C474.083252,180.063568 464.675537,180.598633 455.269867,180.696289 
	C451.522125,180.735214 447.114899,182.816986 443.908234,177.370010 
	C446.952820,177.150482 449.321716,176.979675 451.690613,176.808868 
	C451.711487,176.651672 451.732330,176.494476 451.753204,176.337280 
	C450.102966,176.165726 448.452698,175.994171 446.501740,175.652435 
	C449.191956,175.426285 452.182892,175.370361 455.742310,175.735519 
	C457.840240,176.475342 459.369690,176.794083 460.899139,177.112823 
	C460.932800,176.870438 460.966461,176.628052 461.000122,176.385666 
	C460.417755,176.137787 459.835388,175.889908 459.253052,175.642044 
	C468.484802,175.568802 477.716553,175.495560 487.560669,175.800751 
	C488.727448,176.361908 489.281860,176.544647 489.836304,176.727386 
	C489.735626,176.360291 489.634979,175.993210 489.534302,175.626114 
	C492.793610,175.626114 496.052887,175.626114 500.003235,175.626114 
	C500.003235,177.606979 500.003235,179.362640 499.921997,181.544067 
z"/>
<path fill="#601BE1" opacity="1.000000" stroke="none" 
	d="
M582.350220,216.278412 
	C582.076904,215.552368 582.090332,215.108322 582.108643,213.869705 
	C582.044250,209.296555 581.974854,205.517990 581.905457,201.739410 
	C581.886963,194.803482 581.868530,187.867569 581.939331,180.471283 
	C582.353271,184.747757 582.776733,189.480728 582.961609,194.223007 
	C583.056030,196.645935 582.859131,198.821945 586.152527,199.376984 
	C587.175415,199.549393 587.851135,201.275101 588.881470,202.018372 
	C590.858826,203.444778 592.976135,204.677139 595.408875,205.988190 
	C596.412048,217.714355 596.411560,217.723053 584.994446,217.102554 
	C584.201172,217.059433 583.422485,216.747375 582.350220,216.278412 
z"/>
<path fill="#5814C9" opacity="1.000000" stroke="none" 
	d="
M878.805420,210.604111 
	C867.165466,209.681046 855.652039,207.632309 844.084595,207.259064 
	C837.322815,207.040878 831.379456,205.064957 825.046204,202.836838 
	C839.531250,202.717133 854.189209,202.899765 869.410522,203.459656 
	C870.258362,203.629303 870.542786,203.421692 870.827148,203.214066 
	C873.358643,203.214066 875.890137,203.214066 878.909302,203.214066 
	C878.909302,205.742447 878.909302,207.962265 878.805420,210.604111 
z"/>
<path fill="#687DF8" opacity="1.000000" stroke="none" 
	d="
M673.985840,175.049118 
	C670.173523,171.791885 672.308228,167.510956 672.426514,163.724289 
	C672.445679,163.111496 676.254211,162.182602 678.320984,162.155914 
	C683.074524,162.094498 687.834106,162.498749 692.869751,162.881622 
	C687.035095,166.846786 680.921875,170.644333 674.478821,174.691498 
	C674.148987,174.941101 673.985840,175.049118 673.985840,175.049118 
z"/>
<path fill="#5B16CF" opacity="1.000000" stroke="none" 
	d="
M283.482849,217.842407 
	C284.649139,217.146164 286.338257,216.700119 287.843048,215.905106 
	C288.888641,215.352707 289.680756,214.320572 290.586121,213.502777 
	C289.772095,212.682068 289.075958,211.369751 288.120087,211.140427 
	C285.964661,210.623367 283.241302,210.608292 284.555359,207.442566 
	C285.623444,204.869232 287.043579,201.386978 291.425262,205.156631 
	C291.895660,200.342514 294.165375,195.879730 288.158936,192.691971 
	C289.452881,192.458221 290.746857,192.224472 292.432800,191.989975 
	C292.824829,200.349625 292.824829,208.710037 292.824829,217.943649 
	C290.017426,217.943649 286.972198,217.943649 283.482849,217.842407 
z"/>
<path fill="#C8D0F8" opacity="1.000000" stroke="none" 
	d="
M188.505295,212.871918 
	C184.853745,212.548782 180.932602,211.709442 176.999634,211.649734 
	C175.242050,211.623047 172.472336,212.724243 171.875183,214.072418 
	C170.074890,218.136932 167.565338,222.448410 170.799988,227.401810 
	C168.351868,226.934616 165.733521,226.157944 162.962326,225.335922 
	C163.479752,223.168762 163.890427,221.448654 164.345062,219.326401 
	C169.988281,217.637177 167.503647,212.290588 169.287018,208.722687 
	C173.394882,208.923569 177.573242,209.324417 181.662872,210.159637 
	C183.928818,210.622406 186.046432,211.811508 188.505295,212.871918 
z"/>
<path fill="#5B16CF" opacity="1.000000" stroke="none" 
	d="
M341.923889,150.629425 
	C339.011078,155.780716 334.114807,153.881577 329.935364,153.886002 
	C325.100891,153.891144 320.265503,153.067551 315.430481,152.603775 
	C315.276428,152.031067 315.122406,151.458359 314.968353,150.885651 
	C316.805237,150.256943 318.612122,149.215622 320.484802,149.079651 
	C325.402557,148.722549 330.348969,148.759811 335.608459,148.394684 
	C337.871613,148.877075 339.810211,149.604721 341.923889,150.629425 
z"/>
<path fill="#601BE1" opacity="1.000000" stroke="none" 
	d="
M355.002380,158.433716 
	C355.555145,157.355728 356.033234,156.743484 356.934052,155.589966 
	C356.934052,173.770096 356.941956,191.377228 356.899536,208.984253 
	C356.898132,209.571732 356.387573,210.157990 355.716797,211.010010 
	C355.188751,193.816620 355.058228,176.358063 355.002380,158.433716 
z"/>
<path fill="#5F1ADE" opacity="1.000000" stroke="none" 
	d="
M711.042786,190.481567 
	C705.876038,190.321106 701.083130,190.321106 696.290222,190.321106 
	C699.519531,189.027267 703.115417,189.064240 703.892029,184.505737 
	C703.958862,184.113205 707.858337,183.509247 708.926697,184.345612 
	C710.720520,185.749893 711.669250,188.233734 712.986816,190.630432 
	C712.472351,190.879013 711.944458,190.760529 711.042786,190.481567 
z"/>
<path fill="#5771F6" opacity="1.000000" stroke="none" 
	d="
M658.815796,180.015884 
	C660.130005,182.374161 661.444153,184.732437 662.872742,187.394562 
	C661.766785,186.609131 660.546387,185.519806 659.116272,184.243271 
	C656.968018,185.601913 654.786621,186.981537 652.327393,188.526947 
	C651.773315,186.394424 651.497009,184.096115 651.668030,181.398300 
	C654.348816,180.671173 656.582336,180.343536 658.815796,180.015884 
z"/>
<path fill="#5B16CF" opacity="1.000000" stroke="none" 
	d="
M308.057678,190.270615 
	C314.977386,190.059738 322.308594,190.159836 329.626251,189.890350 
	C333.302429,189.754944 334.148743,191.332886 334.074707,194.635742 
	C333.910522,201.959305 334.031647,209.289246 334.034424,217.046600 
	C333.739349,210.953873 333.289856,204.433426 333.194519,197.907791 
	C333.086090,190.486603 333.223633,190.501251 325.856354,190.501770 
	C320.058777,190.502182 314.261169,190.454956 308.057678,190.270615 
z"/>
<path fill="#5814C9" opacity="1.000000" stroke="none" 
	d="
M430.515015,157.813477 
	C430.818695,174.137360 430.858948,190.836685 430.846008,208.047745 
	C430.546692,207.959915 430.084839,207.359985 430.085815,206.760803 
	C430.112152,190.570129 430.185822,174.379547 430.515015,157.813477 
z"/>
<path fill="#5814C9" opacity="1.000000" stroke="none" 
	d="
M845.424805,162.965363 
	C852.137573,162.635254 859.208862,162.477081 866.606384,162.562836 
	C859.882874,162.916946 852.833069,163.027130 845.424805,162.965363 
z"/>
<path fill="#5771F6" opacity="1.000000" stroke="none" 
	d="
M657.822388,161.573441 
	C657.914490,163.625595 657.959045,165.876358 657.587402,168.556396 
	C655.228149,169.322739 653.285095,169.659805 651.342041,169.996887 
	C651.406250,168.868790 651.470398,167.740692 651.738953,166.337097 
	C653.887085,164.631760 655.830933,163.201889 657.822388,161.573441 
z"/>
<path fill="#5C16D8" opacity="1.000000" stroke="none" 
	d="
M715.617126,175.760132 
	C705.251099,175.906219 694.538818,175.840225 683.482605,175.576355 
	C693.849426,175.434998 704.560120,175.491531 715.617126,175.760132 
z"/>
<path fill="#7C8BF5" opacity="1.000000" stroke="none" 
	d="
M581.542114,201.828491 
	C581.974854,205.517990 582.044250,209.296555 582.072327,213.538132 
	C580.683960,210.823883 579.261292,207.674469 578.070618,204.439682 
	C577.889954,203.948837 578.787109,203.061325 579.441223,202.232544 
	C580.190735,202.044357 580.684753,201.980957 581.542114,201.828491 
z"/>
<path fill="#5D1AE0" opacity="1.000000" stroke="none" 
	d="
M509.713989,153.071533 
	C507.621246,155.525345 511.743195,159.737900 507.270325,161.932220 
	C506.785675,161.959900 506.484589,161.960541 506.484589,161.960541 
	C506.390961,160.885391 506.297363,159.810242 506.449310,158.140579 
	C506.793335,157.038773 506.891785,156.531494 506.990204,156.024200 
	C507.798645,155.078522 508.607117,154.132858 509.713989,153.071533 
z"/>
<path fill="#5814C9" opacity="1.000000" stroke="none" 
	d="
M506.383057,162.421204 
	C506.484589,161.960541 506.785675,161.959900 506.934631,161.987396 
	C507.075623,166.374512 507.067657,170.734131 507.095764,175.560059 
	C507.039429,178.408371 506.947083,180.790375 506.686218,183.505676 
	C506.438965,176.853271 506.360229,169.867584 506.383057,162.421204 
z"/>
<path fill="#C8D0F8" opacity="1.000000" stroke="none" 
	d="
M279.016632,269.400299 
	C280.860229,271.258392 282.822906,273.432617 284.732147,275.978882 
	C282.831024,274.139435 280.983368,271.927917 279.016632,269.400299 
z"/>
<path fill="#5C17D5" opacity="1.000000" stroke="none" 
	d="
M485.504028,162.900085 
	C489.647003,162.516006 494.238190,162.246338 499.274292,161.980042 
	C495.130219,162.327103 490.541229,162.670792 485.504028,162.900085 
z"/>
<path fill="#5814C9" opacity="1.000000" stroke="none" 
	d="
M823.711304,197.590851 
	C820.603271,195.657669 821.917847,193.192657 823.684448,190.797287 
	C823.902893,192.967072 823.864746,195.062683 823.711304,197.590851 
z"/>
<path fill="#C8D0F8" opacity="1.000000" stroke="none" 
	d="
M270.645691,258.809875 
	C272.003326,260.123962 273.476135,261.752472 274.930542,263.753418 
	C273.528381,262.458710 272.144592,260.791504 270.645691,258.809875 
z"/>
<path fill="#C8D0F8" opacity="1.000000" stroke="none" 
	d="
M300.948822,296.411865 
	C302.165192,297.259583 303.486053,298.414032 304.772461,299.932373 
	C303.509735,299.103699 302.281555,297.911133 300.948822,296.411865 
z"/>
<path fill="#5B16CF" opacity="1.000000" stroke="none" 
	d="
M345.992523,154.647797 
	C345.017548,153.986343 344.001892,153.010681 342.983032,151.669785 
	C343.970490,152.314224 344.961182,153.323914 345.992523,154.647797 
z"/>
<path fill="#601BE1" opacity="1.000000" stroke="none" 
	d="
M458.861023,175.518585 
	C459.835388,175.889908 460.417755,176.137787 461.000122,176.385666 
	C460.966461,176.628052 460.932800,176.870438 460.899139,177.112823 
	C459.369690,176.794083 457.840240,176.475342 456.177551,175.871124 
	C456.852509,175.522141 457.660767,175.458633 458.861023,175.518585 
z"/>
<path fill="#5814C9" opacity="1.000000" stroke="none" 
	d="
M813.521606,153.728500 
	C812.826599,154.739807 811.787354,155.828751 810.415527,156.969910 
	C811.114441,155.950104 812.145996,154.878128 813.521606,153.728500 
z"/>
<path fill="#5814C9" opacity="1.000000" stroke="none" 
	d="
M809.871399,157.471695 
	C809.933533,159.529129 809.808655,161.916733 809.464722,164.617828 
	C809.391968,162.554825 809.538147,160.178345 809.871399,157.471695 
z"/>
<path fill="#C8D0F8" opacity="1.000000" stroke="none" 
	d="
M275.954041,265.387146 
	C276.882782,266.183624 277.889343,267.304352 278.907043,268.763855 
	C277.956055,267.972229 276.993958,266.841797 275.954041,265.387146 
z"/>
<path fill="#5C17D5" opacity="1.000000" stroke="none" 
	d="
M444.707153,170.491287 
	C444.475677,169.161102 444.347778,167.428726 444.393097,165.412247 
	C444.647797,166.781784 444.729279,168.435455 444.707153,170.491287 
z"/>
<path fill="#5814C9" opacity="1.000000" stroke="none" 
	d="
M838.269531,162.952698 
	C838.889282,162.661987 839.717590,162.525238 840.738647,162.590698 
	C840.113708,162.897491 839.295837,163.002075 838.269531,162.952698 
z"/>
<path fill="#5814C9" opacity="1.000000" stroke="none" 
	d="
M823.520203,167.659836 
	C823.225037,167.079254 823.053284,166.123322 823.132019,165.066864 
	C823.469543,165.739044 823.556580,166.511780 823.520203,167.659836 
z"/>
<path fill="#BDC7FA" opacity="1.000000" stroke="none" 
	d="
M342.631500,269.971436 
	C342.162537,270.587860 341.382080,271.259216 340.241150,271.907013 
	C340.693787,271.264435 341.506897,270.645386 342.631500,269.971436 
z"/>
<path fill="#C8D0F8" opacity="1.000000" stroke="none" 
	d="
M204.249054,235.202606 
	C204.878357,235.031036 205.743591,235.060486 206.772736,235.300018 
	C206.119431,235.474609 205.302200,235.439102 204.249054,235.202606 
z"/>
<path fill="#5814C9" opacity="1.000000" stroke="none" 
	d="
M824.411499,201.833191 
	C824.059875,201.555344 823.713379,201.001129 823.526550,200.280563 
	C823.929688,200.595078 824.173096,201.075943 824.411499,201.833191 
z"/>
<path fill="#C8D0F8" opacity="1.000000" stroke="none" 
	d="
M267.147522,255.279938 
	C267.877380,255.608765 268.684204,256.215088 269.426758,257.146271 
	C268.649872,256.833221 267.937164,256.195343 267.147522,255.279938 
z"/>
<path fill="#5814C9" opacity="1.000000" stroke="none" 
	d="
M874.214661,190.372284 
	C874.585327,190.083099 875.207336,189.922928 875.951416,189.981354 
	C875.537659,190.300415 875.001831,190.400848 874.214661,190.372284 
z"/>
<path fill="#C8D0F8" opacity="1.000000" stroke="none" 
	d="
M296.924591,291.420044 
	C297.506470,291.603394 298.179901,292.082825 298.880127,292.908630 
	C298.276642,292.742035 297.646393,292.229065 296.924591,291.420044 
z"/>
<path fill="#C8D0F8" opacity="1.000000" stroke="none" 
	d="
M289.739594,282.927979 
	C290.344116,283.240295 291.128754,283.771851 291.954956,284.638367 
	C291.304230,284.364624 290.611969,283.755920 289.739594,282.927979 
z"/>
<path fill="#C8D0F8" opacity="1.000000" stroke="none" 
	d="
M287.945984,280.276794 
	C288.480865,280.583038 289.022339,281.179901 289.425232,282.100098 
	C288.841949,281.804779 288.397247,281.186127 287.945984,280.276794 
z"/>
<path fill="#601BE1" opacity="1.000000" stroke="none" 
	d="
M489.256592,175.538208 
	C489.634979,175.993210 489.735626,176.360291 489.836304,176.727386 
	C489.281860,176.544647 488.727448,176.361908 488.007568,175.918823 
	C488.221069,175.589081 488.599976,175.519684 489.256592,175.538208 
z"/>
<path fill="#C8D0F8" opacity="1.000000" stroke="none" 
	d="
M292.146973,285.267303 
	C292.650604,285.478210 293.269440,285.955811 293.931793,286.750702 
	C293.404266,286.556641 292.833252,286.045319 292.146973,285.267303 
z"/>
<path fill="#5B16CF" opacity="1.000000" stroke="none" 
	d="
M278.240295,216.364090 
	C278.764191,216.499191 279.250153,216.933243 279.854004,217.585342 
	C279.382019,217.423279 278.792175,217.043152 278.240295,216.364090 
z"/>
<path fill="#C8D0F8" opacity="1.000000" stroke="none" 
	d="
M294.357056,288.271301 
	C294.850311,288.480042 295.381775,288.965576 295.937439,289.744385 
	C295.439545,289.541138 294.917389,289.044586 294.357056,288.271301 
z"/>
<path fill="#5D1AE0" opacity="1.000000" stroke="none" 
	d="
M576.426270,201.602081 
	C575.943970,201.768967 575.192871,201.775223 574.364258,201.561157 
	C574.910217,201.374374 575.533875,201.407913 576.426270,201.602081 
z"/>
<path fill="#BDC7FA" opacity="1.000000" stroke="none" 
	d="
M344.634338,268.810730 
	C344.479187,269.218109 344.007080,269.562927 343.226929,269.923126 
	C343.385040,269.541718 343.851196,269.144928 344.634338,268.810730 
z"/>
<path fill="#C8D0F8" opacity="1.000000" stroke="none" 
	d="
M304.719696,300.515167 
	C305.070587,300.637329 305.483154,301.067474 305.922119,301.818176 
	C305.559448,301.700195 305.170410,301.261658 304.719696,300.515167 
z"/>
<path fill="#5C16D8" opacity="1.000000" stroke="none" 
	d="
M674.103149,175.238251 
	C673.985840,175.049118 674.148987,174.941101 674.235229,174.987015 
	C674.578125,175.075516 674.834839,175.118118 675.424927,175.360901 
	C675.245667,175.516525 674.733093,175.471970 674.103149,175.238251 
z"/>
<path fill="#BDC7FA" opacity="1.000000" stroke="none" 
	d="
M345.684875,268.699219 
	C345.517181,268.812408 345.095032,268.879211 344.979279,268.886322 
	C345.193207,268.790955 345.522919,268.688477 345.684875,268.699219 
z"/>
<path fill="#C8D0F8" opacity="1.000000" stroke="none" 
	d="
M307.105408,304.318237 
	C307.603729,304.303802 308.145721,304.613739 308.784851,305.236725 
	C308.304382,305.247375 307.726746,304.945007 307.105408,304.318237 
z"/>
<path fill="#5814C9" opacity="1.000000" stroke="none" 
	d="
M506.779907,156.201538 
	C506.891785,156.531494 506.793335,157.038773 506.517273,157.739288 
	C506.416321,157.414627 506.492950,156.896759 506.779907,156.201538 
z"/>
<path fill="#5B16CF" opacity="1.000000" stroke="none" 
	d="
M346.975708,156.694885 
	C346.666779,156.516891 346.359283,156.040802 346.044800,155.269104 
	C346.350952,155.447937 346.664062,155.922363 346.975708,156.694885 
z"/>
<path fill="#5814C9" opacity="1.000000" stroke="none" 
	d="
M505.942505,187.247055 
	C505.492523,187.401382 505.097656,187.345795 504.429626,187.172028 
	C504.632111,186.880981 505.107758,186.708130 505.848755,186.577118 
	C506.114166,186.618973 505.997620,187.037125 505.942505,187.247055 
z"/>
<path fill="#5814C9" opacity="1.000000" stroke="none" 
	d="
M818.660645,217.028473 
	C818.722961,216.996597 818.624634,217.067703 818.598511,217.050903 
	C818.572388,217.034088 818.598267,217.060333 818.660645,217.028473 
z"/>
<path fill="#5C14DE" opacity="1.000000" stroke="none" 
	d="
M870.541504,203.180298 
	C870.542786,203.421692 870.258362,203.629303 869.845154,203.591492 
	C869.896179,203.279541 870.075989,203.213043 870.541504,203.180298 
z"/>
<path fill="#C8D0F8" opacity="1.000000" stroke="none" 
	d="
M299.992706,295.296051 
	C300.174744,295.257355 300.445038,295.474243 300.815735,295.935883 
	C300.637756,295.970978 300.359375,295.761292 299.992706,295.296051 
z"/>
<path fill="#5B16CF" opacity="1.000000" stroke="none" 
	d="
M307.797974,147.942703 
	C307.861694,148.048660 307.492310,148.060150 307.308197,148.051758 
	C307.254242,147.795410 307.457611,147.726532 307.797974,147.942703 
z"/>
<path fill="#C8D0F8" opacity="1.000000" stroke="none" 
	d="
M296.026001,290.290039 
	C296.212494,290.256714 296.466827,290.480835 296.808533,290.948486 
	C296.628510,290.977173 296.361206,290.762329 296.026001,290.290039 
z"/>
<path fill="#5B16CF" opacity="1.000000" stroke="none" 
	d="
M293.799500,147.933685 
	C293.862793,148.039398 293.492828,148.052963 293.308777,148.042694 
	C293.256775,147.788620 293.460571,147.720474 293.799500,147.933685 
z"/>
<path fill="#5814C9" opacity="1.000000" stroke="none" 
	d="
M817.255310,216.102844 
	C817.374390,215.998093 817.575989,216.081696 817.882812,216.318146 
	C817.760498,216.473541 817.543762,216.413605 817.255310,216.102844 
z"/>
<path fill="#C8D0F8" opacity="1.000000" stroke="none" 
	d="
M274.948120,264.322784 
	C275.138733,264.264862 275.423035,264.460999 275.824554,264.892822 
	C275.641785,264.944611 275.341797,264.760712 274.948120,264.322784 
z"/>
<path fill="#5814C9" opacity="1.000000" stroke="none" 
	d="
M878.198608,217.432739 
	C878.076721,217.359924 878.294067,217.117325 878.367432,217.081635 
	C878.440796,217.045929 878.530457,217.315140 878.530457,217.315140 
	C878.530457,217.315140 878.320435,217.505554 878.198608,217.432739 
z"/>
<path fill="#C8D0F8" opacity="1.000000" stroke="none" 
	d="
M286.729004,278.567749 
	C286.959839,278.525879 287.314758,278.791351 287.757446,279.390564 
	C287.514465,279.441254 287.183746,279.158173 286.729004,278.567749 
z"/>
<path fill="#C8D0F8" opacity="1.000000" stroke="none" 
	d="
M285.754883,277.498474 
	C285.978027,277.433502 286.279510,277.627319 286.636902,278.094574 
	C286.406311,278.164429 286.119751,277.960815 285.754883,277.498474 
z"/>
<path fill="#C8D0F8" opacity="1.000000" stroke="none" 
	d="
M284.739441,276.546936 
	C284.952637,276.465454 285.275421,276.633240 285.684021,277.071045 
	C285.462921,277.159393 285.155945,276.977783 284.739441,276.546936 
z"/>
<path fill="#C8D0F8" opacity="1.000000" stroke="none" 
	d="
M209.254974,235.845428 
	C209.279556,235.426224 209.557358,235.395355 209.927551,235.796524 
	C209.828690,235.948792 209.658096,235.950531 209.254974,235.845428 
z"/>
<path fill="#5C17D5" opacity="1.000000" stroke="none" 
	d="
M448.285065,162.671173 
	C448.255463,162.335480 448.484924,162.274445 448.847229,162.505875 
	C448.935669,162.606461 448.499756,162.753937 448.285065,162.671173 
z"/>
<path fill="#C8D0F8" opacity="1.000000" stroke="none" 
	d="
M269.724426,257.861359 
	C269.995758,257.507721 270.282745,257.596832 270.491547,258.204285 
	C270.223358,258.394165 269.998932,258.254669 269.724426,257.861359 
z"/>
<path fill="#020102" opacity="1.000000" stroke="none" 
	d="
M938.777832,175.052551 
	C925.850708,175.146179 913.399658,175.146179 900.531860,175.146179 
	C900.531860,171.054230 900.531860,167.330353 900.531860,163.207886 
	C913.620117,163.207886 926.616943,163.207886 940.622742,163.207886 
	C940.138916,167.361069 939.696411,171.159988 938.777832,175.052551 
z"/>
<path fill="#020102" opacity="1.000000" stroke="none" 
	d="
M248.952362,175.196686 
	C238.053146,175.200104 227.647934,175.200104 216.851685,175.200104 
	C216.851685,170.817062 216.851685,167.249390 216.851685,162.934418 
	C221.767868,162.934418 226.510483,162.935730 231.253098,162.934097 
	C238.385147,162.931656 245.524033,163.113983 252.646637,162.852753 
	C256.849640,162.698608 258.432159,164.181015 257.829376,168.348282 
	C257.549683,170.281876 257.781616,172.289459 257.781616,175.193253 
	C254.881302,175.193253 252.163834,175.193253 248.952362,175.196686 
z"/>
<path fill="#020102" opacity="1.000000" stroke="none" 
	d="
M401.935913,203.037277 
	C390.662842,203.035416 379.879608,203.035416 368.803070,203.035416 
	C368.803070,189.395889 368.803070,176.496368 368.803070,162.880737 
	C374.985352,162.880737 380.931183,162.884125 386.877014,162.879822 
	C393.207306,162.875244 399.537689,162.878906 405.867859,162.846939 
	C408.300323,162.834656 410.092468,163.323669 410.076752,166.374283 
	C410.015015,178.344238 410.051483,190.314697 410.051483,203.039139 
	C407.267883,203.039139 404.846832,203.039139 401.935913,203.037277 
z"/>
<path fill="#000000" opacity="1.000000" stroke="none" 
	d="
M421.828003,212.962891 
	C421.657776,213.723389 421.180573,214.371307 420.265778,214.904083 
	C420.392487,214.142731 420.956726,213.496506 421.828003,212.962891 
z"/>
<path fill="#100F1E" opacity="1.000000" stroke="none" 
	d="
M455.692963,190.720245 
	C452.582886,193.458252 449.134369,195.972717 445.373413,198.557404 
	C444.935608,196.015976 444.810181,193.404343 444.670593,190.496735 
	C448.556885,190.496735 451.955688,190.496735 455.692963,190.720245 
z"/>
<path fill="#100F1E" opacity="1.000000" stroke="none" 
	d="
M474.225220,202.932388 
	C475.349609,202.030502 476.910126,200.395035 478.402893,200.454681 
	C481.524384,200.579391 484.610138,201.598022 487.802795,202.593201 
	C483.473541,202.946793 479.052063,202.956680 474.225220,202.932388 
z"/>
<path fill="#5C17D5" opacity="1.000000" stroke="none" 
	d="
M436.522278,160.352234 
	C437.756165,159.322952 438.842560,158.623978 441.209778,157.100906 
	C440.816132,160.978668 440.579468,163.309860 440.342834,165.641037 
	C439.678589,165.743683 439.014374,165.846313 438.350128,165.948959 
	C437.691681,164.193481 437.033234,162.438004 436.522278,160.352234 
z"/>
<path fill="#020102" opacity="1.000000" stroke="none" 
	d="
M297.152588,175.396713 
	C295.761261,174.803589 294.369934,174.210480 292.964905,172.835449 
	C293.255035,168.884842 293.558899,165.716141 293.862732,162.547455 
	C304.967346,162.633896 316.071930,162.720337 328.007690,162.823456 
	C329.840485,162.733429 330.842133,162.626724 331.843811,162.520020 
	C332.224945,162.836395 332.606049,163.152771 333.099731,164.229996 
	C333.152222,168.324280 333.092102,171.657730 333.032013,174.991165 
	C333.032013,174.991165 332.977081,175.002457 332.571075,175.087128 
	C320.494232,175.246765 308.823425,175.321747 297.152588,175.396713 
z"/>
<path fill="#5B16CF" opacity="1.000000" stroke="none" 
	d="
M297.112610,175.848175 
	C308.823425,175.321747 320.494232,175.246765 332.579620,175.113831 
	C322.957886,184.002777 310.837280,178.631104 299.671722,179.730103 
	C298.925140,179.803589 297.944458,177.498459 297.112610,175.848175 
z"/>
<path fill="#5B16CF" opacity="1.000000" stroke="none" 
	d="
M293.558472,162.446899 
	C293.558899,165.716141 293.255035,168.884842 292.861267,172.487946 
	C292.932281,169.397018 293.093231,165.871689 293.558472,162.446899 
z"/>
<path fill="#5B16CF" opacity="1.000000" stroke="none" 
	d="
M333.299469,174.692596 
	C333.092102,171.657730 333.152222,168.324280 333.295868,164.548630 
	C333.441895,167.535614 333.504395,170.964813 333.299469,174.692596 
z"/>
<path fill="#5B16CF" opacity="1.000000" stroke="none" 
	d="
M331.604675,162.365082 
	C330.842133,162.626724 329.840485,162.733429 328.473724,162.727020 
	C329.194275,162.479309 330.279907,162.344711 331.604675,162.365082 
z"/>
<path fill="#020102" opacity="1.000000" stroke="none" 
	d="
M636.962769,174.969116 
	C623.637390,174.946701 610.350098,174.946701 597.189270,174.946701 
	C596.890808,174.456116 596.592224,174.185760 596.566895,173.891830 
	C595.608215,162.777191 595.611267,162.821823 606.752930,162.895279 
	C616.551086,162.959885 626.349976,162.908798 636.879150,162.908798 
	C636.879150,166.845078 636.879150,170.429352 636.908325,174.469177 
	C636.937561,174.924713 637.000854,174.991516 636.962769,174.969116 
z"/>
<path fill="#100F1E" opacity="1.000000" stroke="none" 
	d="
M609.982361,189.966675 
	C610.564087,190.097626 611.145874,190.228592 612.026001,190.356384 
	C607.426453,193.591766 602.528564,196.830322 597.290344,200.204865 
	C596.733459,197.299362 596.516907,194.257843 596.247131,190.800507 
	C596.917114,190.270111 597.640320,190.155548 599.163147,190.045654 
	C603.302612,190.022430 606.642456,189.994553 609.982361,189.966675 
z"/>
<path fill="#687DF8" opacity="1.000000" stroke="none" 
	d="
M651.250610,170.449310 
	C653.285095,169.659805 655.228149,169.322739 657.558472,168.983612 
	C658.251953,172.383835 658.558228,175.786102 658.840149,179.602142 
	C656.582336,180.343536 654.348816,180.671173 651.740295,180.991943 
	C651.296509,177.623978 651.227783,174.262863 651.250610,170.449310 
z"/>
<path fill="#5F1ADE" opacity="1.000000" stroke="none" 
	d="
M678.753418,189.018921 
	C678.435547,189.274582 677.843262,189.522476 677.251038,189.770386 
	C677.205750,189.613358 677.160522,189.456345 677.115295,189.299332 
	C677.569885,189.203278 678.024475,189.107224 678.753418,189.018921 
z"/>
<path fill="#5F1ADE" opacity="1.000000" stroke="none" 
	d="
M685.553955,189.888458 
	C685.829712,189.585007 686.338623,189.324417 686.847473,189.063812 
	C686.919922,189.245422 686.992371,189.427032 687.064819,189.608643 
	C686.638916,189.716187 686.212952,189.823746 685.553955,189.888458 
z"/>
<path fill="#B4BFFC" opacity="1.000000" stroke="none" 
	d="
M388.103241,243.584900 
	C387.932587,242.920013 387.998993,242.256470 388.219910,241.649139 
	C388.252808,241.558670 389.012695,241.732635 389.436279,241.784271 
	C389.087646,242.391006 388.738983,242.997726 388.103241,243.584900 
z"/>
<path fill="#5771F6" opacity="1.000000" stroke="none" 
	d="
M743.424194,112.851578 
	C744.012146,112.225349 744.617798,111.884895 745.223511,111.544434 
	C745.272766,111.966118 745.439636,112.724861 745.352356,112.755318 
	C744.745056,112.967216 744.085083,113.028061 743.424194,112.851578 
z"/>
<path fill="#5771F6" opacity="1.000000" stroke="none" 
	d="
M749.102966,106.955345 
	C749.933594,107.318275 750.691101,107.676018 751.448608,108.033752 
	C751.278076,108.262070 751.007812,108.710220 750.952271,108.685013 
	C750.327148,108.401428 749.734985,108.045151 749.062012,107.399773 
	C748.989990,107.091171 749.029846,106.950150 749.102966,106.955345 
z"/>
<path fill="#5771F6" opacity="1.000000" stroke="none" 
	d="
M757.001770,104.001991 
	C756.711060,104.487022 756.418640,104.970055 756.126221,105.453079 
	C755.930054,105.285980 755.733948,105.118896 755.537842,104.951805 
	C755.844727,104.661751 756.151672,104.371704 756.726868,104.039017 
	C756.995117,103.996376 757.000000,104.000000 757.001770,104.001991 
z"/>
<path fill="#6078F6" opacity="1.000000" stroke="none" 
	d="
M711.583130,132.346191 
	C711.687927,131.946442 711.942932,131.704376 712.197998,131.462296 
	C712.298035,131.567749 712.398071,131.673203 712.498108,131.778671 
	C712.243225,132.020401 711.988342,132.262115 711.583130,132.346191 
z"/>
<path fill="#5E19D8" opacity="1.000000" stroke="none" 
	d="
M609.680542,189.701599 
	C606.642456,189.994553 603.302612,190.022430 599.521118,189.960510 
	C602.512573,189.725983 605.945618,189.581268 609.680542,189.701599 
z"/>
</svg>